Dinish-CondensedBold.ufo
<glyph name="exclam" format="2">
  <advance width="212"/>
  <unicode hex="0021"/>
  <outline>
    <contour>
      <point x="67" y="225" type="line"/>
      <point x="146" y="225" type="line"/>
      <point x="171" y="707" type="line"/>
      <point x="42" y="707" type="line"/>
    </contour>
    <contour>
      <point x="50" y="0" type="line"/>
      <point x="162" y="0" type="line"/>
      <point x="162" y="130" type="line"/>
      <point x="50" y="130" type="line"/>
    </contour>
  </outline>
</glyph>
<glyph name="quotedbl" format="2">
  <advance width="359"/>
  <unicode hex="0022"/>
  <outline>
    <contour>
      <point x="30" y="408" type="line"/>
      <point x="145" y="408" type="line"/>
      <point x="145" y="707" type="line"/>
      <point x="30" y="707" type="line"/>
    </contour>
    <contour>
      <point x="214" y="408" type="line"/>
      <point x="330" y="408" type="line"/>
      <point x="330" y="707" type="line"/>
      <point x="214" y="707" type="line"/>
    </contour>
  </outline>
</glyph>
<glyph name="numbersign" format="2">
  <advance width="473"/>
  <unicode hex="0023"/>
  <outline>
    <contour>
      <point x="55" y="0" type="line"/>
      <point x="150" y="0" type="line"/>
      <point x="172" y="218" type="line"/>
      <point x="263" y="218" type="line"/>
      <point x="241" y="0" type="line"/>
      <point x="334" y="0" type="line"/>
      <point x="356" y="218" type="line"/>
      <point x="439" y="218" type="line"/>
      <point x="439" y="302" type="line"/>
      <point x="366" y="302" type="line"/>
      <point x="378" y="420" type="line"/>
      <point x="459" y="420" type="line"/>
      <point x="459" y="504" type="line"/>
      <point x="386" y="504" type="line"/>
      <point x="408" y="707" type="line"/>
      <point x="313" y="707" type="line"/>
      <point x="293" y="504" type="line"/>
      <point x="202" y="504" type="line"/>
      <point x="222" y="707" type="line"/>
      <point x="129" y="707" type="line"/>
      <point x="108" y="504" type="line"/>
      <point x="35" y="504" type="line"/>
      <point x="35" y="420" type="line"/>
      <point x="99" y="420" type="line"/>
      <point x="87" y="302" type="line"/>
      <point x="14" y="302" type="line"/>
      <point x="14" y="218" type="line"/>
      <point x="78" y="218" type="line"/>
    </contour>
    <contour>
      <point x="180" y="302" type="line"/>
      <point x="193" y="420" type="line"/>
      <point x="284" y="420" type="line"/>
      <point x="271" y="302" type="line"/>
    </contour>
  </outline>
</glyph>
<glyph name="dollar" format="2">
  <advance width="438"/>
  <unicode hex="0024"/>
  <outline>
    <contour>
      <point x="172" y="-46" type="line"/>
      <point x="259" y="-46" type="line"/>
      <point x="259" y="35" type="line"/>
      <point x="339.033" y="53.007"/>
      <point x="385" y="119.04"/>
      <point x="385" y="216" type="curve" smooth="yes"/>
      <point x="385" y="317.163"/>
      <point x="347.914" y="372.221"/>
      <point x="255" y="409" type="curve" smooth="yes"/>
      <point x="207" y="428" type="line" smooth="yes"/>
      <point x="165.619" y="444.38"/>
      <point x="147" y="469.206"/>
      <point x="147" y="508" type="curve" smooth="yes"/>
      <point x="147" y="551.489"/>
      <point x="166.526" y="573"/>
      <point x="206" y="573" type="curve" smooth="yes"/>
      <point x="245.641" y="573"/>
      <point x="260.936" y="551.803"/>
      <point x="263" y="494" type="curve"/>
      <point x="378" y="494" type="line"/>
      <point x="376.004" y="589.792"/>
      <point x="333.161" y="654.956"/>
      <point x="259" y="675" type="curve"/>
      <point x="259" y="773" type="line"/>
      <point x="172" y="773" type="line"/>
      <point x="172" y="679" type="line"/>
      <point x="78.879" y="663.981"/>
      <point x="26" y="599.873"/>
      <point x="26" y="502" type="curve" smooth="yes"/>
      <point x="26" y="410.018"/>
      <point x="57.107" y="362.285"/>
      <point x="142" y="324" type="curve" smooth="yes"/>
      <point x="193" y="301" type="line" smooth="yes"/>
      <point x="243.929" y="278.032"/>
      <point x="263" y="254.057"/>
      <point x="263" y="213" type="curve" smooth="yes"/>
      <point x="263" y="158.803"/>
      <point x="243.848" y="134"/>
      <point x="202" y="134" type="curve" smooth="yes"/>
      <point x="161.333" y="134"/>
      <point x="140.025" y="161.537"/>
      <point x="137" y="218" type="curve"/>
      <point x="19" y="218" type="line"/>
      <point x="23.995" y="103.124"/>
      <point x="75.896" y="39.011"/>
      <point x="172" y="29" type="curve"/>
    </contour>
  </outline>
</glyph>
<glyph name="zero" format="2">
  <advance width="418"/>
  <unicode hex="0030"/>
  <outline>
    <contour>
      <point x="209" y="-10" type="curve" smooth="yes"/>
      <point x="323" y="-10"/>
      <point x="380" y="56"/>
      <point x="380" y="190" type="curve" smooth="yes"/>
      <point x="380" y="518" type="line" smooth="yes"/>
      <point x="380" y="652"/>
      <point x="323" y="718"/>
      <point x="209" y="718" type="curve" smooth="yes"/>
      <point x="95" y="718"/>
      <point x="39" y="652"/>
      <point x="39" y="518" type="curve" smooth="yes"/>
      <point x="39" y="190" type="line" smooth="yes"/>
      <point x="39" y="56"/>
      <point x="95" y="-10"/>
    </contour>
    <contour>
      <point x="209" y="103" type="curve" smooth="yes"/>
      <point x="169.024" y="103.387"/>
      <point x="165" y="159.031"/>
      <point x="165" y="191" type="curve" smooth="yes"/>
      <point x="165" y="517" type="line" smooth="yes"/>
      <point x="165" y="550.96"/>
      <point x="167.288" y="604.387"/>
      <point x="209" y="604" type="curve" smooth="yes"/>
      <point x="250.712" y="603.613"/>
      <point x="255" y="551.823"/>
      <point x="255" y="517" type="curve" smooth="yes"/>
      <point x="255" y="191" type="line" smooth="yes"/>
      <point x="255" y="157.147"/>
      <point x="248.976" y="102.613"/>
    </contour>
  </outline>
</glyph>
<glyph name="three" format="2">
  <advance width="408"/>
  <unicode hex="0033"/>
  <outline>
    <contour>
      <point x="34" y="205" type="line"/>
      <point x="34" y="153" type="line" smooth="yes"/>
      <point x="34" y="49.769"/>
      <point x="95.236" y="-10"/>
      <point x="201" y="-10" type="curve" smooth="yes"/>
      <point x="307.685" y="-10"/>
      <point x="370" y="52.683"/>
      <point x="370" y="160" type="curve" smooth="yes"/>
      <point x="370" y="232" type="line" smooth="yes"/>
      <point x="370" y="313.134"/>
      <point x="351.913" y="348.035"/>
      <point x="299" y="369" type="curve"/>
      <point x="349.965" y="390.985"/>
      <point x="370" y="427.951"/>
      <point x="370" y="500" type="curve" smooth="yes"/>
      <point x="370" y="548" type="line" smooth="yes"/>
      <point x="370" y="655.318"/>
      <point x="308.683" y="717"/>
      <point x="202" y="717" type="curve" smooth="yes"/>
      <point x="97.13" y="717"/>
      <point x="34" y="656.125"/>
      <point x="34" y="555" type="curve" smooth="yes"/>
      <point x="34" y="505" type="line"/>
      <point x="156" y="505" type="line"/>
      <point x="156" y="548" type="line" smooth="yes"/>
      <point x="156" y="584.625"/>
      <point x="170.7" y="603"/>
      <point x="200" y="603" type="curve" smooth="yes"/>
      <point x="230.258" y="603"/>
      <point x="244" y="583.636"/>
      <point x="244" y="541" type="curve" smooth="yes"/>
      <point x="244" y="482" type="line" smooth="yes"/>
      <point x="244" y="435.252"/>
      <point x="231.946" y="420"/>
      <point x="195" y="420" type="curve" smooth="yes"/>
      <point x="166" y="420" type="line"/>
      <point x="166" y="307" type="line"/>
      <point x="193" y="307" type="line" smooth="yes"/>
      <point x="232" y="307"/>
      <point x="244" y="291"/>
      <point x="244" y="239" type="curve" smooth="yes"/>
      <point x="244" y="166" type="line" smooth="yes"/>
      <point x="244" y="120.591"/>
      <point x="231.714" y="103"/>
      <point x="200" y="103" type="curve" smooth="yes"/>
      <point x="171.349" y="103"/>
      <point x="156" y="122.534"/>
      <point x="156" y="159" type="curve" smooth="yes"/>
      <point x="156" y="205" type="line"/>
    </contour>
  </outline>
</glyph>
<glyph name="four" format="2">
  <advance width="437"/>
  <unicode hex="0034"/>
  <outline>
    <contour>
      <point x="28" y="118" type="line"/>
      <point x="240" y="118" type="line"/>
      <point x="240" y="0" type="line"/>
      <point x="366" y="0" type="line"/>
      <point x="366" y="118" type="line"/>
      <point x="410" y="118" type="line"/>
      <point x="410" y="231" type="line"/>
      <point x="366" y="231" type="line"/>
      <point x="366" y="387" type="line"/>
      <point x="240" y="387" type="line"/>
      <point x="240" y="231" type="line"/>
      <point x="154" y="231" type="line"/>
      <point x="294" y="707" type="line"/>
      <point x="168" y="707" type="line"/>
      <point x="28" y="231" type="line"/>
    </contour>
  </outline>
</glyph>
<glyph name="five" format="2">
  <advance width="415"/>
  <unicode hex="0035"/>
  <outline>
    <contour>
      <point x="39" y="195" type="line"/>
      <point x="39" y="162" type="line" smooth="yes"/>
      <point x="39" y="51.033"/>
      <point x="98.968" y="-10"/>
      <point x="208" y="-10" type="curve" smooth="yes"/>
      <point x="319.029" y="-10"/>
      <point x="377" y="50.03"/>
      <point x="377" y="165" type="curve" smooth="yes"/>
      <point x="377" y="296" type="line" smooth="yes"/>
      <point x="377" y="406"/>
      <point x="332" y="461"/>
      <point x="242" y="461" type="curve" smooth="yes"/>
      <point x="208.833" y="461"/>
      <point x="181.9" y="451.91"/>
      <point x="162" y="434" type="curve"/>
      <point x="162" y="592" type="line"/>
      <point x="377" y="592" type="line"/>
      <point x="377" y="707" type="line"/>
      <point x="47" y="707" type="line"/>
      <point x="47" y="315" type="line"/>
      <point x="162" y="315" type="line"/>
      <point x="171.521" y="339.755"/>
      <point x="185.577" y="351"/>
      <point x="207" y="351" type="curve" smooth="yes"/>
      <point x="236.167" y="351"/>
      <point x="251" y="330.773"/>
      <point x="251" y="291" type="curve" smooth="yes"/>
      <point x="251" y="167" type="line" smooth="yes"/>
      <point x="251" y="122.341"/>
      <point x="237.231" y="102"/>
      <point x="207" y="102" type="curve" smooth="yes"/>
      <point x="176.769" y="102"/>
      <point x="163" y="122.341"/>
      <point x="163" y="167" type="curve" smooth="yes"/>
      <point x="163" y="195" type="line"/>
    </contour>
  </outline>
</glyph>
<glyph name="six" format="2">
  <advance width="409"/>
  <unicode hex="0036"/>
  <outline>
    <contour>
      <point x="195" y="707" type="line"/>
      <point x="70" y="425" type="line" smooth="yes"/>
      <point x="44" y="365"/>
      <point x="35" y="326"/>
      <point x="35" y="268" type="curve" smooth="yes"/>
      <point x="35" y="163" type="line" smooth="yes"/>
      <point x="35" y="52"/>
      <point x="95" y="-10"/>
      <point x="205" y="-10" type="curve" smooth="yes"/>
      <point x="313" y="-10"/>
      <point x="375" y="52"/>
      <point x="375" y="159" type="curve" smooth="yes"/>
      <point x="375" y="283" type="line" smooth="yes"/>
      <point x="375" y="379"/>
      <point x="325" y="438"/>
      <point x="244" y="438" type="curve" smooth="yes"/>
      <point x="227" y="438"/>
      <point x="214" y="436"/>
      <point x="205" y="431" type="curve"/>
      <point x="325" y="707" type="line"/>
    </contour>
    <contour>
      <point x="161" y="158" type="curve" smooth="yes"/>
      <point x="161" y="279" type="line" smooth="yes"/>
      <point x="161" y="311"/>
      <point x="176" y="328"/>
      <point x="205" y="328" type="curve"/>
      <point x="234" y="327"/>
      <point x="249" y="309"/>
      <point x="249" y="273" type="curve" smooth="yes"/>
      <point x="249" y="159" type="line" smooth="yes"/>
      <point x="249" y="124"/>
      <point x="233" y="103"/>
      <point x="205" y="103" type="curve"/>
      <point x="176" y="104"/>
      <point x="161" y="122"/>
    </contour>
  </outline>
</glyph>
<glyph name="seven" format="2">
  <advance width="390"/>
  <unicode hex="0037"/>
  <outline>
    <contour>
      <point x="68" y="0" type="line"/>
      <point x="194" y="0" type="line"/>
      <point x="367" y="593" type="line"/>
      <point x="367" y="593.4"/>
      <point x="367" y="703.944"/>
      <point x="367" y="707" type="curve"/>
      <point x="24" y="707" type="line"/>
      <point x="24" y="593" type="line"/>
      <point x="241" y="593" type="line"/>
    </contour>
  </outline>
</glyph>
<glyph name="eight" format="2">
  <advance width="419"/>
  <unicode hex="0038"/>
  <outline>
    <contour>
      <point x="99" y="370" type="curve"/>
      <point x="59" y="344"/>
      <point x="39" y="301"/>
      <point x="39" y="241" type="curve" smooth="yes"/>
      <point x="39" y="168" type="line" smooth="yes"/>
      <point x="39" y="52.728"/>
      <point x="99.261" y="-10"/>
      <point x="210" y="-10" type="curve" smooth="yes"/>
      <point x="320.239" y="-10"/>
      <point x="381" y="53.249"/>
      <point x="381" y="168" type="curve" smooth="yes"/>
      <point x="381" y="241" type="line" smooth="yes"/>
      <point x="381" y="302"/>
      <point x="361" y="345"/>
      <point x="321" y="370" type="curve"/>
      <point x="356.272" y="390.155"/>
      <point x="381" y="438.375"/>
      <point x="381" y="487" type="curve" smooth="yes"/>
      <point x="381" y="554" type="line" smooth="yes"/>
      <point x="381" y="655.02"/>
      <point x="315.979" y="717"/>
      <point x="210" y="717" type="curve" smooth="yes"/>
      <point x="106.071" y="717"/>
      <point x="39" y="653.067"/>
      <point x="39" y="554" type="curve" smooth="yes"/>
      <point x="39" y="487" type="line" smooth="yes"/>
      <point x="39" y="435.9"/>
      <point x="63.07" y="388.963"/>
    </contour>
    <contour>
      <point x="166" y="481" type="curve" smooth="yes"/>
      <point x="166" y="553" type="line" smooth="yes"/>
      <point x="166" y="587.636"/>
      <point x="180.692" y="605"/>
      <point x="210" y="605" type="curve" smooth="yes"/>
      <point x="239.239" y="605"/>
      <point x="254" y="587.555"/>
      <point x="254" y="553" type="curve" smooth="yes"/>
      <point x="254" y="481" type="line" smooth="yes"/>
      <point x="254" y="438.511"/>
      <point x="240.648" y="420"/>
      <point x="210" y="420" type="curve" smooth="yes"/>
      <point x="179.938" y="420"/>
      <point x="166" y="439.323"/>
    </contour>
    <contour>
      <point x="166" y="167" type="curve" smooth="yes"/>
      <point x="166" y="250" type="line" smooth="yes"/>
      <point x="166" y="290.955"/>
      <point x="179.967" y="310"/>
      <point x="210" y="310" type="curve" smooth="yes"/>
      <point x="239.167" y="310"/>
      <point x="254" y="289.773"/>
      <point x="254" y="250" type="curve" smooth="yes"/>
      <point x="254" y="167" type="line" smooth="yes"/>
      <point x="254" y="119.107"/>
      <point x="241.928" y="101"/>
      <point x="210" y="101" type="curve" smooth="yes"/>
      <point x="179.167" y="101"/>
      <point x="166" y="120.75"/>
    </contour>
  </outline>
</glyph>
<glyph name="equal" format="2">
  <advance width="429"/>
  <unicode hex="003D"/>
  <outline>
    <contour>
      <point x="33" y="333" type="line"/>
      <point x="383" y="333" type="line"/>
      <point x="383" y="429" type="line"/>
      <point x="33" y="429" type="line"/>
    </contour>
    <contour>
      <point x="33" y="135" type="line"/>
      <point x="383" y="135" type="line"/>
      <point x="383" y="232" type="line"/>
      <point x="33" y="232" type="line"/>
    </contour>
  </outline>
</glyph>
<glyph name="at" format="2">
  <advance width="731"/>
  <unicode hex="0040"/>
  <outline>
    <contour>
      <point x="528" y="6" type="line"/>
      <point x="476.291" y="-28.804"/>
      <point x="429.357" y="-43"/>
      <point x="366" y="-43" type="curve" smooth="yes"/>
      <point x="216.146" y="-43"/>
      <point x="141" y="42.833"/>
      <point x="141" y="214" type="curve" smooth="yes"/>
      <point x="141" y="378" type="line" smooth="yes"/>
      <point x="141" y="540.736"/>
      <point x="217.759" y="625"/>
      <point x="366" y="625" type="curve" smooth="yes"/>
      <point x="512.232" y="625"/>
      <point x="592" y="542.761"/>
      <point x="592" y="392" type="curve" smooth="yes"/>
      <point x="592" y="207" type="line" smooth="yes"/>
      <point x="592" y="167.133"/>
      <point x="579.977" y="150"/>
      <point x="552" y="150" type="curve" smooth="yes"/>
      <point x="527" y="150"/>
      <point x="512" y="167.625"/>
      <point x="512" y="197" type="curve" smooth="yes"/>
      <point x="512" y="507" type="line"/>
      <point x="404" y="507" type="line"/>
      <point x="404" y="468" type="line"/>
      <point x="385.872" y="501.234"/>
      <point x="362.734" y="515"/>
      <point x="325" y="515" type="curve" smooth="yes"/>
      <point x="254.007" y="515"/>
      <point x="220" y="469.01"/>
      <point x="220" y="373" type="curve" smooth="yes"/>
      <point x="220" y="211" type="line" smooth="yes"/>
      <point x="220" y="108.167"/>
      <point x="255.883" y="57"/>
      <point x="328" y="57" type="curve" smooth="yes"/>
      <point x="381.399" y="57"/>
      <point x="414.111" y="79.348"/>
      <point x="429" y="126" type="curve"/>
      <point x="451.237" y="81.526"/>
      <point x="494.601" y="57"/>
      <point x="551" y="57" type="curve" smooth="yes"/>
      <point x="642.067" y="57"/>
      <point x="692" y="115.078"/>
      <point x="692" y="221" type="curve" smooth="yes"/>
      <point x="692" y="383" type="line" smooth="yes"/>
      <point x="692" y="587.537"/>
      <point x="564.449" y="719"/>
      <point x="366" y="719" type="curve" smooth="yes"/>
      <point x="166.957" y="719"/>
      <point x="39" y="585.956"/>
      <point x="39" y="379" type="curve" smooth="yes"/>
      <point x="39" y="204" type="line" smooth="yes"/>
      <point x="39" y="-7.846"/>
      <point x="162.852" y="-137"/>
      <point x="366" y="-137" type="curve" smooth="yes"/>
      <point x="445.167" y="-137"/>
      <point x="517.134" y="-113.903"/>
      <point x="581" y="-68" type="curve"/>
    </contour>
    <contour>
      <point x="366" y="152" type="curve" smooth="yes"/>
      <point x="339.283" y="152"/>
      <point x="327" y="169.637"/>
      <point x="327" y="208" type="curve" smooth="yes"/>
      <point x="327" y="368" type="line" smooth="yes"/>
      <point x="327" y="403.167"/>
      <point x="340.123" y="421"/>
      <point x="366" y="421" type="curve" smooth="yes"/>
      <point x="392.708" y="421"/>
      <point x="406" y="403.388"/>
      <point x="406" y="368" type="curve" smooth="yes"/>
      <point x="406" y="211" type="line" smooth="yes"/>
      <point x="406" y="171.088"/>
      <point x="393.059" y="152"/>
    </contour>
  </outline>
</glyph>
<glyph name="A" format="2">
  <advance width="496"/>
  <unicode hex="0041"/>
  <anchor x="249" y="770" name="top"/>
  <anchor x="249" y="657" name="t.ring"/>
  <anchor x="249" y="-86" name="bottom"/>
  <anchor x="486" y="0" name="b.cedilla"/>
  <outline>
    <contour>
      <point x="6" y="0" type="line"/>
      <point x="137" y="0" type="line"/>
      <point x="166" y="137" type="line"/>
      <point x="331" y="137" type="line"/>
      <point x="359" y="0" type="line"/>
      <point x="490" y="0" type="line"/>
      <point x="310" y="707" type="line"/>
      <point x="187" y="707" type="line"/>
    </contour>
    <contour>
      <point x="189" y="250" type="line"/>
      <point x="249" y="537" type="line"/>
      <point x="308" y="250" type="line"/>
    </contour>
  </outline>
</glyph>
<glyph name="C" format="2">
  <advance width="479"/>
  <unicode hex="0043"/>
  <anchor x="241" y="770" name="top"/>
  <anchor x="212" y="0" name="b.cedilla"/>
  <anchor x="236" y="-86" name="bottom"/>
  <outline>
    <contour>
      <point x="314" y="217" type="line"/>
      <point x="314" y="199" type="line" smooth="yes"/>
      <point x="314" y="138"/>
      <point x="288" y="105"/>
      <point x="241" y="105" type="curve" smooth="yes"/>
      <point x="189.99" y="105"/>
      <point x="165" y="140"/>
      <point x="165" y="209" type="curve" smooth="yes"/>
      <point x="165" y="493" type="line" smooth="yes"/>
      <point x="165" y="567"/>
      <point x="190" y="603"/>
      <point x="241" y="603" type="curve" smooth="yes"/>
      <point x="287" y="603"/>
      <point x="314" y="568"/>
      <point x="314" y="509" type="curve" smooth="yes"/>
      <point x="314" y="488" type="line"/>
      <point x="440" y="488" type="line"/>
      <point x="440" y="510" type="line" smooth="yes"/>
      <point x="440" y="642"/>
      <point x="369" y="717"/>
      <point x="244" y="717" type="curve" smooth="yes"/>
      <point x="116" y="717"/>
      <point x="39" y="641"/>
      <point x="39" y="513" type="curve" smooth="yes"/>
      <point x="39" y="195" type="line" smooth="yes"/>
      <point x="39" y="65"/>
      <point x="111" y="-8"/>
      <point x="237" y="-8" type="curve" smooth="yes"/>
      <point x="364" y="-8"/>
      <point x="439" y="69"/>
      <point x="439" y="198" type="curve" smooth="yes"/>
      <point x="439" y="217" type="line"/>
    </contour>
  </outline>
</glyph>
<glyph name="D" format="2">
  <advance width="474"/>
  <unicode hex="0044"/>
  <anchor x="200" y="770" name="top"/>
  <anchor x="199" y="-86" name="bottom"/>
  <outline>
    <contour>
      <point x="43" y="0" type="line"/>
      <point x="232" y="0" type="line" smooth="yes"/>
      <point x="359" y="0"/>
      <point x="435" y="76"/>
      <point x="435" y="203" type="curve" smooth="yes"/>
      <point x="435" y="504" type="line" smooth="yes"/>
      <point x="435" y="633"/>
      <point x="364" y="707"/>
      <point x="239" y="707" type="curve" smooth="yes"/>
      <point x="43" y="707" type="line"/>
    </contour>
    <contour>
      <point x="168" y="113" type="line"/>
      <point x="168" y="593" type="line"/>
      <point x="236" y="593" type="line" smooth="yes"/>
      <point x="283" y="593"/>
      <point x="309" y="554"/>
      <point x="309" y="482" type="curve" smooth="yes"/>
      <point x="309" y="217" type="line" smooth="yes"/>
      <point x="309" y="150"/>
      <point x="283" y="113"/>
      <point x="236" y="113" type="curve" smooth="yes"/>
    </contour>
  </outline>
</glyph>
<glyph name="E" format="2">
  <advance width="384"/>
  <unicode hex="0045"/>
  <anchor x="219" y="770" name="top"/>
  <anchor x="219" y="-86" name="bottom"/>
  <anchor x="358" y="0" name="b.cedilla"/>
  <outline>
    <contour>
      <point x="43" y="0" type="line"/>
      <point x="358" y="0" type="line"/>
      <point x="358" y="113" type="line"/>
      <point x="168" y="113" type="line"/>
      <point x="168" y="303" type="line"/>
      <point x="332" y="303" type="line"/>
      <point x="332" y="416" type="line"/>
      <point x="168" y="416" type="line"/>
      <point x="168" y="593" type="line"/>
      <point x="358" y="593" type="line"/>
      <point x="358" y="707" type="line"/>
      <point x="43" y="707" type="line"/>
    </contour>
  </outline>
</glyph>
<glyph name="F" format="2">
  <advance width="379"/>
  <unicode hex="0046"/>
  <anchor x="215" y="770" name="top"/>
  <anchor x="236" y="-86" name="bottom"/>
  <outline>
    <contour>
      <point x="148.64" y="299" type="line"/>
      <point x="333" y="299" type="line"/>
      <point x="333" y="413" type="line"/>
      <point x="148.64" y="413" type="line"/>
    </contour>
    <contour>
      <point x="149.32" y="593" type="line"/>
      <point x="358" y="593" type="line"/>
      <point x="358" y="707" type="line"/>
      <point x="149.32" y="707" type="line"/>
    </contour>
    <contour>
      <point x="43" y="0" type="line"/>
      <point x="169" y="0" type="line"/>
      <point x="169" y="707.042" type="line"/>
      <point x="43" y="707" type="line"/>
    </contour>
  </outline>
</glyph>
<glyph name="H" format="2">
  <advance width="471"/>
  <unicode hex="0048"/>
  <anchor x="235" y="770" name="top"/>
  <anchor x="235" y="-86" name="bottom"/>
  <outline>
    <contour>
      <point x="148.64" y="303" type="line"/>
      <point x="322.36" y="303" type="line"/>
      <point x="322.36" y="416" type="line"/>
      <point x="148.64" y="416" type="line"/>
    </contour>
    <contour>
      <point x="302" y="0" type="line"/>
      <point x="428" y="0" type="line"/>
      <point x="428" y="707" type="line"/>
      <point x="302" y="707" type="line"/>
    </contour>
    <contour>
      <point x="43" y="0" type="line"/>
      <point x="169" y="0" type="line"/>
      <point x="169" y="707" type="line"/>
      <point x="43" y="707" type="line"/>
    </contour>
  </outline>
</glyph>
<glyph name="J" format="2">
  <advance width="272"/>
  <unicode hex="004A"/>
  <anchor x="162" y="770" name="top"/>
  <anchor x="236" y="-86" name="bottom"/>
  <outline>
    <contour>
      <point x="17" y="0" type="line"/>
      <point x="42" y="0" type="line" smooth="yes"/>
      <point x="164" y="0"/>
      <point x="225" y="56"/>
      <point x="225" y="168" type="curve" smooth="yes"/>
      <point x="225" y="707" type="line"/>
      <point x="99" y="707" type="line"/>
      <point x="99" y="182" type="line" smooth="yes"/>
      <point x="99" y="136"/>
      <point x="78" y="114"/>
      <point x="34" y="114" type="curve" smooth="yes"/>
      <point x="17" y="114" type="line"/>
    </contour>
  </outline>
</glyph>
<glyph name="L" format="2">
  <advance width="375"/>
  <unicode hex="004C"/>
  <anchor x="106" y="770" name="top"/>
  <anchor x="200" y="-86" name="bottom"/>
  <anchor x="283" y="397" name="dot"/>
  <outline>
    <contour>
      <point x="43" y="0" type="line"/>
      <point x="358" y="0" type="line"/>
      <point x="358" y="113" type="line"/>
      <point x="169" y="113" type="line"/>
      <point x="169" y="707" type="line"/>
      <point x="43" y="707" type="line"/>
    </contour>
  </outline>
</glyph>
<glyph name="M" format="2">
  <advance width="584"/>
  <unicode hex="004D"/>
  <anchor x="292" y="770" name="top"/>
  <anchor x="236" y="-86" name="bottom"/>
  <outline>
    <contour>
      <point x="43" y="0" type="line"/>
      <point x="169" y="0" type="line"/>
      <point x="169" y="411" type="line"/>
      <point x="258" y="137" type="line"/>
      <point x="326" y="137" type="line"/>
      <point x="416" y="414" type="line"/>
      <point x="416" y="0" type="line"/>
      <point x="542" y="0" type="line"/>
      <point x="542" y="707" type="line"/>
      <point x="416" y="707" type="line"/>
      <point x="292" y="334" type="line"/>
      <point x="169" y="707" type="line"/>
      <point x="43" y="707" type="line"/>
    </contour>
  </outline>
</glyph>
<glyph name="N" format="2">
  <advance width="485"/>
  <unicode hex="004E"/>
  <anchor x="245" y="770" name="top"/>
  <anchor x="245" y="-86" name="bottom"/>
  <outline>
    <contour>
      <point x="43" y="0" type="line"/>
      <point x="169" y="0" type="line"/>
      <point x="169" y="377" type="line"/>
      <point x="316" y="0" type="line"/>
      <point x="442" y="0" type="line"/>
      <point x="442" y="707" type="line"/>
      <point x="316" y="707" type="line"/>
      <point x="316" y="313" type="line"/>
      <point x="169" y="707" type="line"/>
      <point x="43" y="707" type="line"/>
    </contour>
  </outline>
</glyph>
<glyph name="P" format="2">
  <advance width="444"/>
  <unicode hex="0050"/>
  <anchor x="233" y="770" name="top"/>
  <anchor x="236" y="-86" name="bottom"/>
  <outline>
    <contour>
      <point x="43" y="0" type="line"/>
      <point x="168" y="0" type="line"/>
      <point x="168" y="261" type="line"/>
      <point x="233" y="261" type="line" smooth="yes"/>
      <point x="367" y="261"/>
      <point x="427" y="330"/>
      <point x="427" y="484" type="curve" smooth="yes"/>
      <point x="427" y="640"/>
      <point x="368" y="707"/>
      <point x="233" y="707" type="curve" smooth="yes"/>
      <point x="43" y="707" type="line"/>
    </contour>
    <contour>
      <point x="168" y="375" type="line"/>
      <point x="168" y="594" type="line"/>
      <point x="229" y="594" type="line" smooth="yes"/>
      <point x="279" y="594"/>
      <point x="301" y="560"/>
      <point x="301" y="484" type="curve" smooth="yes"/>
      <point x="301" y="408"/>
      <point x="279" y="375"/>
      <point x="229" y="375" type="curve" smooth="yes"/>
    </contour>
  </outline>
</glyph>
<glyph name="R" format="2">
  <advance width="471"/>
  <unicode hex="0052"/>
  <anchor x="229" y="770" name="top"/>
  <anchor x="229" y="-86" name="bottom"/>
  <outline>
    <contour>
      <point x="43" y="0" type="line"/>
      <point x="169" y="0" type="line"/>
      <point x="169" y="284" type="line"/>
      <point x="229" y="284" type="line"/>
      <point x="318" y="0" type="line"/>
      <point x="450" y="0" type="line"/>
      <point x="344" y="307" type="line"/>
      <point x="401" y="338"/>
      <point x="427" y="398"/>
      <point x="427" y="496" type="curve" smooth="yes"/>
      <point x="427" y="646"/>
      <point x="372" y="707"/>
      <point x="236" y="707" type="curve" smooth="yes"/>
      <point x="43" y="707" type="line"/>
    </contour>
    <contour>
      <point x="169" y="396" type="line"/>
      <point x="169" y="594" type="line"/>
      <point x="234" y="594" type="line" smooth="yes"/>
      <point x="282" y="594"/>
      <point x="301" y="566"/>
      <point x="301" y="496" type="curve" smooth="yes"/>
      <point x="301" y="425"/>
      <point x="281" y="396"/>
      <point x="234" y="396" type="curve" smooth="yes"/>
    </contour>
  </outline>
</glyph>
<glyph name="T" format="2">
  <advance width="377"/>
  <unicode hex="0054"/>
  <anchor x="189" y="-86" name="bottom"/>
  <anchor x="189" y="770" name="top"/>
  <anchor x="156" y="0" name="b.cedilla"/>
  <outline>
    <contour>
      <point x="127" y="0" type="line"/>
      <point x="252" y="0" type="line"/>
      <point x="252" y="593" type="line"/>
      <point x="374" y="593" type="line"/>
      <point x="374" y="707" type="line"/>
      <point x="4" y="707" type="line"/>
      <point x="4" y="593" type="line"/>
      <point x="127" y="593" type="line"/>
    </contour>
  </outline>
</glyph>
<glyph name="W" format="2">
  <advance width="690"/>
  <unicode hex="0057"/>
  <anchor x="345" y="770" name="top"/>
  <anchor x="345" y="-86" name="bottom"/>
  <outline>
    <contour>
      <point x="132" y="0" type="line"/>
      <point x="267" y="0" type="line"/>
      <point x="345" y="434" type="line"/>
      <point x="422" y="0" type="line"/>
      <point x="558" y="0" type="line"/>
      <point x="684" y="707" type="line"/>
      <point x="558" y="707" type="line"/>
      <point x="489" y="178" type="line"/>
      <point x="423" y="707" type="line"/>
      <point x="269" y="707" type="line"/>
      <point x="203" y="178" type="line"/>
      <point x="134" y="707" type="line"/>
      <point x="6" y="707" type="line"/>
    </contour>
  </outline>
</glyph>
<glyph name="X" format="2">
  <advance width="424"/>
  <unicode hex="0058"/>
  <anchor x="214" y="770" name="top"/>
  <anchor x="236" y="-86" name="bottom"/>
  <outline>
    <contour>
      <point x="6" y="0" type="line"/>
      <point x="130" y="0" type="line"/>
      <point x="213" y="247" type="line"/>
      <point x="295" y="0" type="line"/>
      <point x="419" y="0" type="line"/>
      <point x="274" y="367" type="line"/>
      <point x="409" y="707" type="line"/>
      <point x="285" y="707" type="line"/>
      <point x="213" y="485" type="line"/>
      <point x="140" y="707" type="line"/>
      <point x="16" y="707" type="line"/>
      <point x="151" y="367" type="line"/>
    </contour>
  </outline>
</glyph>
<glyph name="Z" format="2">
  <advance width="367"/>
  <unicode hex="005A"/>
  <anchor x="192" y="770" name="top"/>
  <anchor x="191" y="-86" name="bottom"/>
  <outline>
    <contour>
      <point x="22" y="0" type="line"/>
      <point x="348" y="0" type="line"/>
      <point x="348" y="114" type="line"/>
      <point x="146" y="114" type="line"/>
      <point x="344" y="593" type="line"/>
      <point x="344" y="707" type="line"/>
      <point x="32" y="707" type="line"/>
      <point x="32" y="593" type="line"/>
      <point x="220" y="593" type="line"/>
      <point x="22" y="114" type="line"/>
    </contour>
  </outline>
</glyph>
<glyph name="asciicircum" format="2">
  <advance width="429"/>
  <unicode hex="005E"/>
  <outline>
    <contour>
      <point x="31" y="286" type="line"/>
      <point x="124" y="286" type="line"/>
      <point x="210" y="573" type="line"/>
      <point x="296" y="286" type="line"/>
      <point x="389" y="286" type="line"/>
      <point x="257" y="715" type="line"/>
      <point x="163" y="715" type="line"/>
    </contour>
  </outline>
</glyph>
<glyph name="underscore" format="2">
  <advance width="435"/>
  <unicode hex="005F"/>
  <outline>
    <contour>
      <point x="0" y="-120" type="line"/>
      <point x="435" y="-120" type="line"/>
      <point x="435" y="-49" type="line"/>
      <point x="0" y="-49" type="line"/>
    </contour>
  </outline>
</glyph>
<glyph name="grave" format="2">
  <advance width="512"/>
  <unicode hex="0060"/>
  <outline>
    <contour>
      <point x="268" y="604" type="line"/>
      <point x="370" y="604" type="line"/>
      <point x="268" y="743" type="line"/>
      <point x="142" y="743" type="line"/>
    </contour>
  </outline>
</glyph>
<glyph name="b" format="2">
  <advance width="419"/>
  <unicode hex="0062"/>
  <anchor x="260" y="590" name="top"/>
  <anchor x="260" y="-86" name="bottom"/>
  <outline>
    <contour>
      <point x="42" y="0" type="line"/>
      <point x="157" y="0" type="line"/>
      <point x="157" y="38" type="line"/>
      <point x="184" y="6"/>
      <point x="212" y="-8"/>
      <point x="250" y="-8" type="curve" smooth="yes"/>
      <point x="334" y="-8"/>
      <point x="381" y="55"/>
      <point x="381" y="167" type="curve" smooth="yes"/>
      <point x="381" y="374" type="line" smooth="yes"/>
      <point x="381" y="487"/>
      <point x="335" y="549"/>
      <point x="252" y="549" type="curve" smooth="yes"/>
      <point x="211" y="549"/>
      <point x="178" y="530"/>
      <point x="161" y="498" type="curve"/>
      <point x="161" y="707" type="line"/>
      <point x="42" y="707" type="line"/>
    </contour>
    <contour>
      <point x="211" y="98" type="curve" smooth="yes"/>
      <point x="176" y="98"/>
      <point x="159" y="127"/>
      <point x="159" y="186" type="curve" smooth="yes"/>
      <point x="159" y="354" type="line" smooth="yes"/>
      <point x="159" y="412"/>
      <point x="177" y="442"/>
      <point x="211" y="442" type="curve" smooth="yes"/>
      <point x="245" y="442"/>
      <point x="262" y="413"/>
      <point x="262" y="354" type="curve" smooth="yes"/>
      <point x="262" y="186" type="line" smooth="yes"/>
      <point x="262" y="127"/>
      <point x="245" y="98"/>
    </contour>
  </outline>
</glyph>
<glyph name="d" format="2">
  <advance width="419"/>
  <unicode hex="0064"/>
  <anchor x="166" y="590" name="top"/>
  <anchor x="189" y="-86" name="bottom"/>
  <outline>
    <contour>
      <point x="264" y="0" type="line"/>
      <point x="378" y="0" type="line"/>
      <point x="378" y="707" type="line"/>
      <point x="260" y="707" type="line"/>
      <point x="260" y="498" type="line"/>
      <point x="242" y="531"/>
      <point x="210" y="549"/>
      <point x="169" y="549" type="curve" smooth="yes"/>
      <point x="86" y="549"/>
      <point x="39" y="486"/>
      <point x="39" y="374" type="curve" smooth="yes"/>
      <point x="39" y="167" type="line" smooth="yes"/>
      <point x="39" y="56"/>
      <point x="87" y="-8"/>
      <point x="171" y="-8" type="curve" smooth="yes"/>
      <point x="207" y="-8"/>
      <point x="238" y="7"/>
      <point x="264" y="38" type="curve"/>
    </contour>
    <contour>
      <point x="210" y="98" type="curve" smooth="yes"/>
      <point x="162.152" y="98"/>
      <point x="158" y="149.667"/>
      <point x="158" y="186" type="curve" smooth="yes"/>
      <point x="158" y="354" type="line" smooth="yes"/>
      <point x="158" y="411"/>
      <point x="176" y="442"/>
      <point x="209" y="442" type="curve" smooth="yes"/>
      <point x="244" y="442"/>
      <point x="262" y="412"/>
      <point x="262" y="354" type="curve" smooth="yes"/>
      <point x="262" y="186" type="line" smooth="yes"/>
      <point x="262" y="127"/>
      <point x="245" y="98"/>
    </contour>
  </outline>
</glyph>
<glyph name="e" format="2">
  <advance width="420"/>
  <unicode hex="0065"/>
  <anchor x="210" y="604" name="top"/>
  <anchor x="213" y="-86" name="bottom"/>
  <anchor x="271" y="0" name="b.cedilla"/>
  <outline>
    <contour>
      <point x="158" y="228" type="line"/>
      <point x="382" y="228" type="line"/>
      <point x="382" y="336" type="line" smooth="yes"/>
      <point x="382" y="476"/>
      <point x="322" y="549"/>
      <point x="208" y="549" type="curve" smooth="yes"/>
      <point x="95" y="549"/>
      <point x="39" y="479"/>
      <point x="39" y="336" type="curve" smooth="yes"/>
      <point x="39" y="204" type="line" smooth="yes"/>
      <point x="39" y="61"/>
      <point x="95" y="-8"/>
      <point x="211" y="-8" type="curve" smooth="yes"/>
      <point x="319" y="-8"/>
      <point x="378" y="52"/>
      <point x="378" y="164" type="curve" smooth="yes"/>
      <point x="378" y="170" type="line"/>
      <point x="263" y="170" type="line"/>
      <point x="263" y="165" type="line" smooth="yes"/>
      <point x="263" y="119"/>
      <point x="246" y="96"/>
      <point x="211" y="96" type="curve" smooth="yes"/>
      <point x="176" y="96"/>
      <point x="158" y="124"/>
      <point x="158" y="179" type="curve" smooth="yes"/>
    </contour>
    <contour>
      <point x="158" y="314" type="line"/>
      <point x="158" y="354" type="line" smooth="yes"/>
      <point x="158" y="412"/>
      <point x="176" y="442"/>
      <point x="210" y="442" type="curve" smooth="yes"/>
      <point x="245" y="442"/>
      <point x="263" y="412"/>
      <point x="263" y="354" type="curve" smooth="yes"/>
      <point x="263" y="314" type="line"/>
    </contour>
  </outline>
</glyph>
<glyph name="f" format="2">
  <advance width="293"/>
  <unicode hex="0066"/>
  <anchor x="155" y="770" name="top"/>
  <anchor x="236" y="-86" name="bottom"/>
  <outline>
    <contour>
      <point x="82" y="0" type="line"/>
      <point x="200" y="0" type="line"/>
      <point x="200" y="458" type="line"/>
      <point x="272" y="458" type="line"/>
      <point x="272" y="541" type="line"/>
      <point x="200" y="541" type="line"/>
      <point x="200" y="563" type="line" smooth="yes"/>
      <point x="200" y="605.686"/>
      <point x="213.779" y="623"/>
      <point x="257" y="623" type="curve" smooth="yes"/>
      <point x="272" y="623" type="line"/>
      <point x="272" y="707" type="line"/>
      <point x="221" y="707" type="line" smooth="yes"/>
      <point x="127.995" y="707"/>
      <point x="82" y="661"/>
      <point x="82" y="571" type="curve" smooth="yes"/>
      <point x="82" y="541" type="line"/>
      <point x="28" y="541" type="line"/>
      <point x="28" y="458" type="line"/>
      <point x="82" y="458" type="line"/>
    </contour>
  </outline>
</glyph>
<glyph name="h" format="2">
  <advance width="419"/>
  <unicode hex="0068"/>
  <anchor x="218" y="770" name="top"/>
  <anchor x="218" y="-86" name="bottom"/>
  <outline>
    <contour>
      <point x="42" y="0" type="line"/>
      <point x="161" y="0" type="line"/>
      <point x="161" y="385" type="line" smooth="yes"/>
      <point x="161" y="417.696"/>
      <point x="174.161" y="442"/>
      <point x="210" y="442" type="curve" smooth="yes"/>
      <point x="244.075" y="442"/>
      <point x="259" y="416.353"/>
      <point x="259" y="385" type="curve" smooth="yes"/>
      <point x="259" y="0" type="line"/>
      <point x="378" y="0" type="line"/>
      <point x="378" y="386" type="line" smooth="yes"/>
      <point x="378" y="496"/>
      <point x="335" y="549"/>
      <point x="246" y="549" type="curve" smooth="yes"/>
      <point x="214" y="549"/>
      <point x="185" y="534"/>
      <point x="161" y="506" type="curve"/>
      <point x="161" y="707" type="line"/>
      <point x="42" y="707" type="line"/>
    </contour>
  </outline>
</glyph>
<glyph name="i" format="2">
  <advance width="210"/>
  <unicode hex="0069"/>
  <anchor x="165" y="0" name="b.cedilla"/>
  <anchor x="105" y="-86" name="bottom"/>
  <outline>
    <contour>
      <point x="46" y="0" type="line"/>
      <point x="165" y="0" type="line"/>
      <point x="165" y="541" type="line"/>
      <point x="46" y="541" type="line"/>
    </contour>
    <contour>
      <point x="46" y="607" type="line"/>
      <point x="165" y="607" type="line"/>
      <point x="165" y="707" type="line"/>
      <point x="46" y="707" type="line"/>
    </contour>
  </outline>
</glyph>
<glyph name="m" format="2">
  <advance width="636"/>
  <unicode hex="006D"/>
  <anchor x="322" y="604" name="top"/>
  <anchor x="236" y="-86" name="bottom"/>
  <outline>
    <contour>
      <point x="42" y="0" type="line"/>
      <point x="161" y="0" type="line"/>
      <point x="161" y="385" type="line" smooth="yes"/>
      <point x="161" y="417.696"/>
      <point x="174.161" y="442"/>
      <point x="210" y="442" type="curve" smooth="yes"/>
      <point x="244.075" y="442"/>
      <point x="259" y="416.353"/>
      <point x="259" y="385" type="curve" smooth="yes"/>
      <point x="259" y="0" type="line"/>
      <point x="378" y="0" type="line"/>
      <point x="378" y="385" type="line" smooth="yes"/>
      <point x="378" y="416.496"/>
      <point x="392.881" y="442"/>
      <point x="427" y="442" type="curve" smooth="yes"/>
      <point x="462.839" y="442"/>
      <point x="476" y="417.696"/>
      <point x="476" y="385" type="curve" smooth="yes"/>
      <point x="476" y="0" type="line"/>
      <point x="595" y="0" type="line"/>
      <point x="595" y="386" type="line" smooth="yes"/>
      <point x="595" y="499"/>
      <point x="553" y="549"/>
      <point x="459" y="549" type="curve" smooth="yes"/>
      <point x="421" y="549"/>
      <point x="379" y="527"/>
      <point x="352" y="493" type="curve"/>
      <point x="329" y="529"/>
      <point x="290" y="549"/>
      <point x="247" y="549" type="curve" smooth="yes"/>
      <point x="211" y="549"/>
      <point x="181" y="533"/>
      <point x="156" y="501" type="curve"/>
      <point x="156" y="541" type="line"/>
      <point x="42" y="541" type="line"/>
    </contour>
  </outline>
</glyph>
<glyph name="o" format="2">
  <advance width="420"/>
  <unicode hex="006F"/>
  <anchor x="211" y="604" name="top"/>
  <anchor x="211" y="-86" name="bottom"/>
  <anchor x="180" y="0" name="b.cedilla"/>
  <outline>
    <contour>
      <point x="211" y="-8" type="curve" smooth="yes"/>
      <point x="328" y="-8"/>
      <point x="382" y="59"/>
      <point x="382" y="172" type="curve" smooth="yes"/>
      <point x="382" y="368" type="line" smooth="yes"/>
      <point x="382" y="482"/>
      <point x="328" y="549"/>
      <point x="211" y="549" type="curve" smooth="yes"/>
      <point x="94" y="549"/>
      <point x="39" y="481"/>
      <point x="39" y="368" type="curve" smooth="yes"/>
      <point x="39" y="172" type="line" smooth="yes"/>
      <point x="39" y="61"/>
      <point x="95" y="-8"/>
    </contour>
    <contour>
      <point x="210" y="98" type="curve" smooth="yes"/>
      <point x="176" y="98"/>
      <point x="158" y="123"/>
      <point x="158" y="191" type="curve" smooth="yes"/>
      <point x="158" y="369" type="line" smooth="yes"/>
      <point x="158" y="417"/>
      <point x="176" y="442"/>
      <point x="210" y="442" type="curve" smooth="yes"/>
      <point x="245" y="442"/>
      <point x="263" y="417"/>
      <point x="263" y="369" type="curve" smooth="yes"/>
      <point x="263" y="191" type="line" smooth="yes"/>
      <point x="263" y="123"/>
      <point x="245" y="98"/>
    </contour>
  </outline>
</glyph>
<glyph name="p" format="2">
  <advance width="419"/>
  <unicode hex="0070"/>
  <anchor x="220" y="604" name="top"/>
  <anchor x="236" y="-86" name="bottom"/>
  <outline>
    <contour>
      <point x="42" y="-162" type="line"/>
      <point x="161" y="-162" type="line"/>
      <point x="161" y="33" type="line"/>
      <point x="184" y="6"/>
      <point x="214" y="-8"/>
      <point x="250" y="-8" type="curve" smooth="yes"/>
      <point x="334" y="-8"/>
      <point x="381" y="55"/>
      <point x="381" y="167" type="curve" smooth="yes"/>
      <point x="381" y="374" type="line" smooth="yes"/>
      <point x="381" y="487"/>
      <point x="335" y="549"/>
      <point x="252" y="549" type="curve" smooth="yes"/>
      <point x="212" y="549"/>
      <point x="180" y="532"/>
      <point x="157" y="498" type="curve"/>
      <point x="157" y="541" type="line"/>
      <point x="42" y="541" type="line"/>
    </contour>
    <contour>
      <point x="211" y="98" type="curve" smooth="yes"/>
      <point x="176" y="98"/>
      <point x="159" y="127"/>
      <point x="159" y="186" type="curve" smooth="yes"/>
      <point x="159" y="354" type="line" smooth="yes"/>
      <point x="159" y="412"/>
      <point x="177" y="442"/>
      <point x="211" y="442" type="curve" smooth="yes"/>
      <point x="245" y="442"/>
      <point x="262" y="413"/>
      <point x="262" y="354" type="curve" smooth="yes"/>
      <point x="262" y="186" type="line" smooth="yes"/>
      <point x="262" y="127"/>
      <point x="245" y="98"/>
    </contour>
  </outline>
</glyph>
<glyph name="r" format="2">
  <advance width="313"/>
  <unicode hex="0072"/>
  <anchor x="185" y="604" name="top"/>
  <anchor x="185" y="-86" name="bottom"/>
  <outline>
    <contour>
      <point x="42" y="0" type="line"/>
      <point x="161" y="0" type="line"/>
      <point x="161" y="340" type="line" smooth="yes"/>
      <point x="161" y="398.667"/>
      <point x="194.333" y="432"/>
      <point x="245" y="432" type="curve" smooth="yes"/>
      <point x="262.333" y="432"/>
      <point x="280.333" y="428.667"/>
      <point x="299" y="422" type="curve"/>
      <point x="299" y="547" type="line"/>
      <point x="287.667" y="549.667"/>
      <point x="275.333" y="551"/>
      <point x="262" y="551" type="curve" smooth="yes"/>
      <point x="216.667" y="551"/>
      <point x="182.667" y="534"/>
      <point x="156" y="490" type="curve"/>
      <point x="156" y="541" type="line"/>
      <point x="42" y="541" type="line"/>
    </contour>
  </outline>
</glyph>
<glyph name="s" format="2">
  <advance width="401"/>
  <unicode hex="0073"/>
  <anchor x="200" y="604" name="top"/>
  <anchor x="174" y="0" name="b.cedilla"/>
  <anchor x="201" y="-86" name="bottom"/>
  <outline>
    <contour>
      <point x="31" y="162" type="line"/>
      <point x="31" y="156" type="line" smooth="yes"/>
      <point x="31" y="55"/>
      <point x="96" y="-8"/>
      <point x="202" y="-8" type="curve" smooth="yes"/>
      <point x="306" y="-8"/>
      <point x="374" y="55"/>
      <point x="374" y="152" type="curve" smooth="yes"/>
      <point x="374" y="228"/>
      <point x="341" y="274"/>
      <point x="264" y="308" type="curve" smooth="yes"/>
      <point x="198" y="337" type="line" smooth="yes"/>
      <point x="162" y="353"/>
      <point x="148" y="370"/>
      <point x="148" y="399" type="curve" smooth="yes"/>
      <point x="148" y="432"/>
      <point x="167" y="451"/>
      <point x="200" y="451" type="curve" smooth="yes"/>
      <point x="234" y="451"/>
      <point x="253" y="427"/>
      <point x="253" y="386" type="curve" smooth="yes"/>
      <point x="253" y="380" type="line"/>
      <point x="368" y="380" type="line"/>
      <point x="368" y="390" type="line" smooth="yes"/>
      <point x="368" y="485"/>
      <point x="301" y="549"/>
      <point x="201" y="549" type="curve" smooth="yes"/>
      <point x="102" y="549"/>
      <point x="34" y="486"/>
      <point x="34" y="394" type="curve" smooth="yes"/>
      <point x="34" y="320"/>
      <point x="66" y="276"/>
      <point x="143" y="242" type="curve" smooth="yes"/>
      <point x="205" y="215" type="line" smooth="yes"/>
      <point x="242" y="199"/>
      <point x="258" y="179"/>
      <point x="258" y="150" type="curve" smooth="yes"/>
      <point x="258" y="110"/>
      <point x="240" y="91"/>
      <point x="204" y="91" type="curve" smooth="yes"/>
      <point x="167" y="91"/>
      <point x="145" y="115"/>
      <point x="145" y="156" type="curve" smooth="yes"/>
      <point x="145" y="162" type="line"/>
    </contour>
  </outline>
</glyph>
<glyph name="t" format="2">
  <advance width="309"/>
  <unicode hex="0074"/>
  <anchor x="186" y="-86" name="bottom"/>
  <anchor x="140" y="770" name="top"/>
  <outline>
    <contour>
      <point x="271" y="0" type="line"/>
      <point x="271" y="106" type="line"/>
      <point x="267" y="106" type="line" smooth="yes"/>
      <point x="222" y="106"/>
      <point x="199" y="129"/>
      <point x="199" y="175" type="curve" smooth="yes"/>
      <point x="199" y="458" type="line"/>
      <point x="285" y="458" type="line"/>
      <point x="285" y="541" type="line"/>
      <point x="199" y="541" type="line"/>
      <point x="199" y="684" type="line"/>
      <point x="80" y="636" type="line"/>
      <point x="80" y="541" type="line"/>
      <point x="19" y="541" type="line"/>
      <point x="19" y="458" type="line"/>
      <point x="80" y="458" type="line"/>
      <point x="80" y="168" type="line" smooth="yes"/>
      <point x="80" y="56"/>
      <point x="143" y="0"/>
      <point x="267" y="0" type="curve" smooth="yes"/>
    </contour>
  </outline>
</glyph>
<glyph name="u" format="2">
  <advance width="419"/>
  <unicode hex="0075"/>
  <anchor x="212" y="604" name="top"/>
  <anchor x="212" y="-86" name="bottom"/>
  <anchor x="255" y="0" name="b.cedilla"/>
  <outline>
    <contour>
      <point x="42" y="541" type="line"/>
      <point x="42" y="181" type="line" smooth="yes"/>
      <point x="42" y="59.492"/>
      <point x="80.743" y="-8"/>
      <point x="210" y="-8" type="curve" smooth="yes"/>
      <point x="341.38" y="-8"/>
      <point x="378" y="57.414"/>
      <point x="378" y="181" type="curve" smooth="yes"/>
      <point x="378" y="541" type="line"/>
      <point x="259" y="541" type="line"/>
      <point x="259" y="187.593" type="line" smooth="yes"/>
      <point x="259" y="135.734"/>
      <point x="255.931" y="98"/>
      <point x="210" y="98" type="curve" smooth="yes"/>
      <point x="164.069" y="98"/>
      <point x="161" y="137.287"/>
      <point x="161" y="187.593" type="curve" smooth="yes"/>
      <point x="161" y="541" type="line"/>
    </contour>
  </outline>
</glyph>
<glyph name="x" format="2">
  <advance width="389"/>
  <unicode hex="0078"/>
  <anchor x="190" y="604" name="top"/>
  <anchor x="236" y="-86" name="bottom"/>
  <outline>
    <contour>
      <point x="11" y="0" type="line"/>
      <point x="133" y="0" type="line"/>
      <point x="190" y="152" type="line"/>
      <point x="257" y="0" type="line"/>
      <point x="378" y="0" type="line"/>
      <point x="253" y="283" type="line"/>
      <point x="372" y="541" type="line"/>
      <point x="250" y="541" type="line"/>
      <point x="200" y="404" type="line"/>
      <point x="139" y="541" type="line"/>
      <point x="18" y="541" type="line"/>
      <point x="133" y="281" type="line"/>
    </contour>
  </outline>
</glyph>
<glyph name="y" format="2">
  <advance width="418"/>
  <unicode hex="0079"/>
  <anchor x="213" y="604" name="top"/>
  <anchor x="360" y="-105" name="dot"/>
  <anchor x="213" y="578" name="t.ring"/>
  <outline>
    <contour>
      <point x="50" y="-162" type="line"/>
      <point x="54" y="-162" type="line" smooth="yes"/>
      <point x="183" y="-162"/>
      <point x="238" y="-130"/>
      <point x="261" y="-39" type="curve" smooth="yes"/>
      <point x="408" y="541" type="line"/>
      <point x="283" y="541" type="line"/>
      <point x="215" y="212" type="line"/>
      <point x="142" y="541" type="line"/>
      <point x="11" y="541" type="line"/>
      <point x="162" y="-30" type="line"/>
      <point x="158.86" y="-34.489" type="line"/>
      <point x="146.912" y="-49.496"/>
      <point x="124.958" y="-57"/>
      <point x="93" y="-57" type="curve" smooth="yes"/>
      <point x="50" y="-57" type="line"/>
    </contour>
  </outline>
</glyph>
<glyph name="z" format="2">
  <advance width="393"/>
  <unicode hex="007A"/>
  <anchor x="186" y="604" name="top"/>
  <anchor x="186" y="-86" name="bottom"/>
  <outline>
    <contour>
      <point x="39" y="0" type="line"/>
      <point x="354" y="0" type="line"/>
      <point x="354" y="100" type="line"/>
      <point x="161" y="100" type="line"/>
      <point x="354" y="440" type="line"/>
      <point x="354" y="541" type="line"/>
      <point x="39" y="541" type="line"/>
      <point x="39" y="440" type="line"/>
      <point x="236" y="440" type="line"/>
      <point x="39" y="100" type="line"/>
    </contour>
  </outline>
</glyph>
<glyph name="cent" format="2">
  <advance width="453"/>
  <unicode hex="00A2"/>
  <outline>
    <contour>
      <point x="202" y="-102" type="line"/>
      <point x="262" y="-102" type="line"/>
      <point x="262" y="-3" type="line"/>
      <point x="337.194" y="13.041"/>
      <point x="378" y="74.25"/>
      <point x="378" y="171" type="curve" smooth="yes"/>
      <point x="378" y="188" type="line"/>
      <point x="263" y="188" type="line"/>
      <point x="263" y="171" type="line" smooth="yes"/>
      <point x="263" y="122.396"/>
      <point x="245.288" y="98"/>
      <point x="210" y="98" type="curve" smooth="yes"/>
      <point x="175.864" y="98"/>
      <point x="158" y="128.231"/>
      <point x="158" y="186" type="curve" smooth="yes"/>
      <point x="158" y="354" type="line" smooth="yes"/>
      <point x="158" y="412.057"/>
      <point x="176.034" y="442"/>
      <point x="211" y="442" type="curve" smooth="yes"/>
      <point x="245.711" y="442"/>
      <point x="263" y="418.394"/>
      <point x="263" y="371" type="curve" smooth="yes"/>
      <point x="263" y="352" type="line"/>
      <point x="378" y="352" type="line"/>
      <point x="378" y="373" type="line" smooth="yes"/>
      <point x="378" y="469.754"/>
      <point x="339.196" y="526.957"/>
      <point x="262" y="544" type="curve"/>
      <point x="262" y="650" type="line"/>
      <point x="202" y="650" type="line"/>
      <point x="202" y="549" type="line"/>
      <point x="93.851" y="549"/>
      <point x="39" y="483.045"/>
      <point x="39" y="353" type="curve" smooth="yes"/>
      <point x="39" y="187" type="line" smooth="yes"/>
      <point x="39" y="57.29"/>
      <point x="93.575" y="-8"/>
      <point x="202" y="-8" type="curve"/>
    </contour>
  </outline>
</glyph>
<glyph name="currency" format="2">
  <advance width="584"/>
  <unicode hex="00A4"/>
  <outline>
    <contour>
      <point x="118" y="71" type="line"/>
      <point x="185" y="137" type="line"/>
      <point x="217" y="119"/>
      <point x="253" y="110"/>
      <point x="292" y="110" type="curve" smooth="yes"/>
      <point x="330.013" y="110"/>
      <point x="365" y="118"/>
      <point x="398" y="137" type="curve"/>
      <point x="466" y="70" type="line"/>
      <point x="543" y="146" type="line"/>
      <point x="475" y="215" type="line"/>
      <point x="493" y="247"/>
      <point x="502" y="281"/>
      <point x="502" y="318" type="curve" smooth="yes"/>
      <point x="502" y="357"/>
      <point x="493" y="392"/>
      <point x="474" y="423" type="curve"/>
      <point x="542" y="490" type="line"/>
      <point x="466" y="567" type="line"/>
      <point x="397" y="500" type="line"/>
      <point x="364" y="518"/>
      <point x="329" y="527"/>
      <point x="292" y="527" type="curve" smooth="yes"/>
      <point x="253.987" y="527"/>
      <point x="218" y="519"/>
      <point x="185" y="500" type="curve"/>
      <point x="119" y="567" type="line"/>
      <point x="42" y="490" type="line"/>
      <point x="110" y="422" type="line"/>
      <point x="92" y="389"/>
      <point x="83" y="355"/>
      <point x="83" y="318" type="curve" smooth="yes"/>
      <point x="83" y="282"/>
      <point x="92" y="248"/>
      <point x="109" y="215" type="curve"/>
      <point x="42" y="147" type="line"/>
    </contour>
    <contour>
      <point x="292" y="215" type="curve" smooth="yes"/>
      <point x="235" y="215"/>
      <point x="193" y="259"/>
      <point x="193" y="318" type="curve" smooth="yes"/>
      <point x="193" y="378"/>
      <point x="235" y="422"/>
      <point x="292" y="422" type="curve" smooth="yes"/>
      <point x="350" y="422"/>
      <point x="392" y="378"/>
      <point x="392" y="318" type="curve" smooth="yes"/>
      <point x="392" y="259"/>
      <point x="350" y="215"/>
    </contour>
  </outline>
</glyph>
<glyph name="yen" format="2">
  <advance width="418"/>
  <unicode hex="00A5"/>
  <outline>
    <contour>
      <point x="41" y="113" type="line"/>
      <point x="146" y="113" type="line"/>
      <point x="146" y="0" type="line"/>
      <point x="272" y="0" type="line"/>
      <point x="272" y="113" type="line"/>
      <point x="378" y="113" type="line"/>
      <point x="378" y="200" type="line"/>
      <point x="272" y="200" type="line"/>
      <point x="272" y="254" type="line"/>
      <point x="378" y="254" type="line"/>
      <point x="378" y="341" type="line"/>
      <point x="285" y="341" type="line"/>
      <point x="414" y="707" type="line"/>
      <point x="283" y="707" type="line"/>
      <point x="212" y="433" type="line"/>
      <point x="138" y="707" type="line"/>
      <point x="5" y="707" type="line"/>
      <point x="134" y="341" type="line"/>
      <point x="41" y="341" type="line"/>
      <point x="41" y="254" type="line"/>
      <point x="146" y="254" type="line"/>
      <point x="146" y="200" type="line"/>
      <point x="41" y="200" type="line"/>
    </contour>
  </outline>
</glyph>
<glyph name="brokenbar" format="2">
  <advance width="270"/>
  <unicode hex="00A6"/>
  <outline>
    <contour>
      <point x="78" y="397" type="line"/>
      <point x="193" y="397" type="line"/>
      <point x="193" y="758" type="line"/>
      <point x="78" y="758" type="line"/>
    </contour>
    <contour>
      <point x="78" y="-86" type="line"/>
      <point x="193" y="-86" type="line"/>
      <point x="193" y="274" type="line"/>
      <point x="78" y="274" type="line"/>
    </contour>
  </outline>
</glyph>
<glyph name="section" format="2">
  <advance width="418"/>
  <unicode hex="00A7"/>
  <outline>
    <contour>
      <point x="56" y="4" type="line"/>
      <point x="56" y="-121.026"/>
      <point x="100.023" y="-172"/>
      <point x="208" y="-172" type="curve" smooth="yes"/>
      <point x="312.671" y="-172"/>
      <point x="365" y="-118.338"/>
      <point x="365" y="-11" type="curve" smooth="yes"/>
      <point x="365" y="65.348"/>
      <point x="343.782" y="108.091"/>
      <point x="296" y="128" type="curve"/>
      <point x="349.804" y="147.927"/>
      <point x="376" y="197.7"/>
      <point x="376" y="280" type="curve" smooth="yes"/>
      <point x="376" y="387.964"/>
      <point x="339.366" y="446.828"/>
      <point x="259" y="468" type="curve" smooth="yes"/>
      <point x="188.788" y="486.497"/>
      <point x="171" y="512.903"/>
      <point x="171" y="569" type="curve" smooth="yes"/>
      <point x="171" y="615.2"/>
      <point x="182.125" y="633"/>
      <point x="211" y="633" type="curve" smooth="yes"/>
      <point x="239.46" y="633"/>
      <point x="252" y="608.531"/>
      <point x="252" y="553" type="curve"/>
      <point x="359" y="553" type="line"/>
      <point x="359" y="677.977"/>
      <point x="317.02" y="727"/>
      <point x="210" y="727" type="curve" smooth="yes"/>
      <point x="108.816" y="727"/>
      <point x="56" y="672.812"/>
      <point x="56" y="569" type="curve" smooth="yes"/>
      <point x="56" y="494.993"/>
      <point x="78.005" y="449.998"/>
      <point x="123" y="432" type="curve"/>
      <point x="67.134" y="409.055"/>
      <point x="43" y="363.2"/>
      <point x="43" y="280" type="curve" smooth="yes"/>
      <point x="43" y="175.766"/>
      <point x="73.972" y="113.44"/>
      <point x="160" y="91" type="curve" smooth="yes"/>
      <point x="235.595" y="71.282"/>
      <point x="251" y="45.337"/>
      <point x="251" y="-15" type="curve" smooth="yes"/>
      <point x="251" y="-57.977"/>
      <point x="237.016" y="-78"/>
      <point x="207" y="-78" type="curve" smooth="yes"/>
      <point x="178.061" y="-78"/>
      <point x="164" y="-51.187"/>
      <point x="164" y="4" type="curve"/>
    </contour>
    <contour>
      <point x="209" y="182" type="curve" smooth="yes"/>
      <point x="169.649" y="182"/>
      <point x="156" y="207.238"/>
      <point x="156" y="280" type="curve" smooth="yes"/>
      <point x="156" y="352.549"/>
      <point x="169.36" y="377"/>
      <point x="209" y="377" type="curve" smooth="yes"/>
      <point x="248.959" y="377"/>
      <point x="263" y="351.778"/>
      <point x="263" y="280" type="curve" smooth="yes"/>
      <point x="263" y="208.017"/>
      <point x="248.664" y="182"/>
    </contour>
  </outline>
</glyph>
<glyph name="dieresis" format="2">
  <advance width="512"/>
  <unicode hex="00A8"/>
  <outline>
    <contour>
      <point x="128" y="605" type="line"/>
      <point x="223" y="605" type="line"/>
      <point x="223" y="722" type="line"/>
      <point x="128" y="722" type="line"/>
    </contour>
    <contour>
      <point x="288" y="605" type="line"/>
      <point x="383" y="605" type="line"/>
      <point x="383" y="722" type="line"/>
      <point x="288" y="722" type="line"/>
    </contour>
  </outline>
</glyph>
<glyph name="logicalnot" format="2">
  <advance width="429"/>
  <unicode hex="00AC"/>
  <outline>
    <contour>
      <point x="36" y="262" type="line"/>
      <point x="273" y="262" type="line"/>
      <point x="273" y="159" type="line"/>
      <point x="392" y="159" type="line"/>
      <point x="392" y="369" type="line"/>
      <point x="36" y="369" type="line"/>
    </contour>
  </outline>
</glyph>
<glyph name="plusminus" format="2">
  <advance width="429"/>
  <unicode hex="00B1"/>
  <outline>
    <contour>
      <point x="158" y="170" type="line"/>
      <point x="271" y="170" type="line"/>
      <point x="271" y="295" type="line"/>
      <point x="396" y="295" type="line"/>
      <point x="396" y="409" type="line"/>
      <point x="271" y="409" type="line"/>
      <point x="271" y="534" type="line"/>
      <point x="158" y="534" type="line"/>
      <point x="158" y="409" type="line"/>
      <point x="33" y="409" type="line"/>
      <point x="33" y="295" type="line"/>
      <point x="158" y="295" type="line"/>
    </contour>
    <contour>
      <point x="33" y="9" type="line"/>
      <point x="396" y="9" type="line"/>
      <point x="396" y="123" type="line"/>
      <point x="33" y="123" type="line"/>
    </contour>
  </outline>
</glyph>
<glyph name="acute" format="2">
  <advance width="512"/>
  <unicode hex="00B4"/>
  <outline>
    <contour>
      <point x="142" y="604" type="line"/>
      <point x="244" y="604" type="line"/>
      <point x="370" y="743" type="line"/>
      <point x="244" y="743" type="line"/>
    </contour>
  </outline>
</glyph>
<glyph name="mu" format="2">
  <advance width="419"/>
  <unicode hex="00B5"/>
  <outline>
    <contour>
      <point x="42" y="-162" type="line"/>
      <point x="154" y="-162" type="line"/>
      <point x="154" y="4" type="line"/>
      <point x="165" y="-2"/>
      <point x="179" y="-5"/>
      <point x="196" y="-5" type="curve" smooth="yes"/>
      <point x="224.965" y="-5"/>
      <point x="253.267" y="13.167"/>
      <point x="264" y="40" type="curve"/>
      <point x="264" y="0" type="line"/>
      <point x="378" y="0" type="line"/>
      <point x="378" y="541" type="line"/>
      <point x="259" y="541" type="line"/>
      <point x="259" y="156" type="line" smooth="yes"/>
      <point x="259" y="119.153"/>
      <point x="241.129" y="98"/>
      <point x="210" y="98" type="curve" smooth="yes"/>
      <point x="179.793" y="98"/>
      <point x="161" y="120.245"/>
      <point x="161" y="156" type="curve" smooth="yes"/>
      <point x="161" y="541" type="line"/>
      <point x="42" y="541" type="line"/>
    </contour>
  </outline>
</glyph>
<glyph name="paragraph" format="2">
  <advance width="566"/>
  <unicode hex="00B6"/>
  <outline>
    <contour>
      <point x="213" y="-162" type="line"/>
      <point x="327" y="-162" type="line"/>
      <point x="327" y="610" type="line"/>
      <point x="389" y="610" type="line"/>
      <point x="389" y="-162" type="line"/>
      <point x="502" y="-162" type="line"/>
      <point x="502" y="707" type="line"/>
      <point x="248" y="707" type="line" smooth="yes"/>
      <point x="127.898" y="707"/>
      <point x="43" y="615.89"/>
      <point x="43" y="487" type="curve" smooth="yes"/>
      <point x="43" y="367.735"/>
      <point x="116.215" y="272.987"/>
      <point x="213" y="267" type="curve"/>
    </contour>
  </outline>
</glyph>
<glyph name="periodcentered" format="2">
  <advance width="179"/>
  <unicode hex="00B7"/>
  <anchor x="90" y="280" name="_dot"/>
  <outline>
    <contour>
      <point x="30" y="219" type="line"/>
      <point x="150" y="219" type="line"/>
      <point x="150" y="354" type="line"/>
      <point x="30" y="354" type="line"/>
    </contour>
  </outline>
</glyph>
<glyph name="onesuperior" format="2">
  <advance width="220"/>
  <unicode hex="00B9"/>
  <outline>
    <contour>
      <point x="90" y="440" type="line"/>
      <point x="175" y="440" type="line"/>
      <point x="175" y="867" type="line"/>
      <point x="90" y="867" type="line"/>
      <point x="25" y="823" type="line"/>
      <point x="25" y="725" type="line"/>
      <point x="90" y="769" type="line"/>
    </contour>
  </outline>
</glyph>
<glyph name="ordmasculine" format="2">
  <advance width="317"/>
  <unicode hex="00BA"/>
  <outline>
    <contour>
      <point x="44" y="552" type="line" smooth="yes"/>
      <point x="44" y="471.155"/>
      <point x="79.846" y="435"/>
      <point x="160" y="435" type="curve" smooth="yes"/>
      <point x="236.15" y="435"/>
      <point x="273" y="473.155"/>
      <point x="273" y="552" type="curve" smooth="yes"/>
      <point x="273" y="647" type="line" smooth="yes"/>
      <point x="273" y="726.863"/>
      <point x="237.132" y="764"/>
      <point x="160" y="764" type="curve" smooth="yes"/>
      <point x="80.342" y="764"/>
      <point x="44" y="727.345"/>
      <point x="44" y="647" type="curve" smooth="yes"/>
    </contour>
    <contour>
      <point x="159" y="507" type="curve" smooth="yes"/>
      <point x="135" y="507"/>
      <point x="123" y="523"/>
      <point x="123" y="555" type="curve" smooth="yes"/>
      <point x="123" y="644" type="line" smooth="yes"/>
      <point x="123" y="674.916"/>
      <point x="135.813" y="692"/>
      <point x="159" y="692" type="curve" smooth="yes"/>
      <point x="182.667" y="692"/>
      <point x="194" y="676.457"/>
      <point x="194" y="644" type="curve" smooth="yes"/>
      <point x="194" y="555" type="line" smooth="yes"/>
      <point x="194" y="522.543"/>
      <point x="182.667" y="507"/>
    </contour>
  </outline>
</glyph>
<glyph name="onequarter" format="2">
  <advance width="712"/>
  <unicode hex="00BC"/>
  <outline>
    <contour>
      <point x="144" y="0" type="line"/>
      <point x="228" y="0" type="line"/>
      <point x="494" y="715" type="line"/>
      <point x="410" y="715" type="line"/>
    </contour>
    <contour>
      <point x="90" y="280" type="line"/>
      <point x="175" y="280" type="line"/>
      <point x="175" y="707" type="line"/>
      <point x="90" y="707" type="line"/>
      <point x="25" y="663" type="line"/>
      <point x="25" y="565" type="line"/>
      <point x="90" y="609" type="line"/>
    </contour>
    <contour>
      <point x="437" y="66" type="line"/>
      <point x="579" y="66" type="line"/>
      <point x="579" y="0" type="line"/>
      <point x="663" y="0" type="line"/>
      <point x="663" y="66" type="line"/>
      <point x="692" y="66" type="line"/>
      <point x="692" y="142" type="line"/>
      <point x="663" y="142" type="line"/>
      <point x="663" y="225" type="line"/>
      <point x="579" y="225" type="line"/>
      <point x="579" y="142" type="line"/>
      <point x="522" y="142" type="line"/>
      <point x="615" y="427" type="line"/>
      <point x="531" y="427" type="line"/>
      <point x="437" y="142" type="line"/>
    </contour>
  </outline>
</glyph>
<glyph name="threequarters" format="2">
  <advance width="735"/>
  <unicode hex="00BE"/>
  <outline>
    <contour>
      <point x="209" y="0" type="line"/>
      <point x="293" y="0" type="line"/>
      <point x="559" y="715" type="line"/>
      <point x="475" y="715" type="line"/>
    </contour>
    <contour>
      <point x="29" y="401" type="line"/>
      <point x="29" y="369" type="line" smooth="yes"/>
      <point x="29" y="308"/>
      <point x="69" y="273"/>
      <point x="140" y="273" type="curve" smooth="yes"/>
      <point x="212" y="273"/>
      <point x="253" y="311"/>
      <point x="253" y="379" type="curve" smooth="yes"/>
      <point x="253" y="426" type="line" smooth="yes"/>
      <point x="253" y="469"/>
      <point x="242" y="487"/>
      <point x="206" y="502" type="curve"/>
      <point x="241" y="520"/>
      <point x="253" y="539"/>
      <point x="253" y="578" type="curve" smooth="yes"/>
      <point x="253" y="613" type="line" smooth="yes"/>
      <point x="253" y="676"/>
      <point x="212" y="712"/>
      <point x="140" y="712" type="curve" smooth="yes"/>
      <point x="71" y="712"/>
      <point x="29" y="675"/>
      <point x="29" y="613" type="curve" smooth="yes"/>
      <point x="29" y="582" type="line"/>
      <point x="111" y="582" type="line"/>
      <point x="111" y="608" type="line" smooth="yes"/>
      <point x="111" y="627.724"/>
      <point x="118.98" y="636"/>
      <point x="139" y="636" type="curve" smooth="yes"/>
      <point x="161.927" y="636"/>
      <point x="169" y="626.007"/>
      <point x="169" y="604" type="curve" smooth="yes"/>
      <point x="169" y="571" type="line" smooth="yes"/>
      <point x="169" y="547.627"/>
      <point x="160.689" y="536"/>
      <point x="136" y="536" type="curve" smooth="yes"/>
      <point x="118" y="536" type="line"/>
      <point x="118" y="461" type="line"/>
      <point x="134" y="461" type="line" smooth="yes"/>
      <point x="164.79" y="461"/>
      <point x="169" y="449.587"/>
      <point x="169" y="421" type="curve" smooth="yes"/>
      <point x="169" y="381" type="line" smooth="yes"/>
      <point x="169" y="357.637"/>
      <point x="163.38" y="349"/>
      <point x="139" y="349" type="curve" smooth="yes"/>
      <point x="120" y="349"/>
      <point x="111" y="358"/>
      <point x="111" y="377" type="curve" smooth="yes"/>
      <point x="111" y="401" type="line"/>
    </contour>
    <contour>
      <point x="460" y="66" type="line"/>
      <point x="602" y="66" type="line"/>
      <point x="602" y="0" type="line"/>
      <point x="686" y="0" type="line"/>
      <point x="686" y="66" type="line"/>
      <point x="715" y="66" type="line"/>
      <point x="715" y="142" type="line"/>
      <point x="686" y="142" type="line"/>
      <point x="686" y="225" type="line"/>
      <point x="602" y="225" type="line"/>
      <point x="602" y="142" type="line"/>
      <point x="545" y="142" type="line"/>
      <point x="638" y="427" type="line"/>
      <point x="554" y="427" type="line"/>
      <point x="460" y="142" type="line"/>
    </contour>
  </outline>
</glyph>
<glyph name="AE" format="2">
  <advance width="695"/>
  <unicode hex="00C6"/>
  <anchor x="418" y="770" name="top"/>
  <outline>
    <contour>
      <point x="6" y="0" type="line"/>
      <point x="137" y="0" type="line"/>
      <point x="187" y="136" type="line"/>
      <point x="354" y="136" type="line"/>
      <point x="354" y="0" type="line"/>
      <point x="670" y="0" type="line"/>
      <point x="670" y="113" type="line"/>
      <point x="480" y="113" type="line"/>
      <point x="480" y="303" type="line"/>
      <point x="644" y="303" type="line"/>
      <point x="644" y="416" type="line"/>
      <point x="480" y="416" type="line"/>
      <point x="480" y="593" type="line"/>
      <point x="670" y="593" type="line"/>
      <point x="670" y="707" type="line"/>
      <point x="272" y="707" type="line"/>
    </contour>
    <contour>
      <point x="228" y="249" type="line"/>
      <point x="354" y="594" type="line"/>
      <point x="354" y="249" type="line"/>
    </contour>
  </outline>
</glyph>
<glyph name="Oslash" format="2">
  <advance width="479"/>
  <unicode hex="00D8"/>
  <anchor x="244" y="770" name="top"/>
  <outline>
    <component base="O"/>
    <contour>
      <point x="39" y="-20" type="line"/>
      <point x="99" y="-20" type="line"/>
      <point x="440" y="735" type="line"/>
      <point x="380" y="735" type="line"/>
    </contour>
  </outline>
</glyph>
<glyph name="Thorn" format="2">
  <advance width="444"/>
  <unicode hex="00DE"/>
  <outline>
    <contour>
      <point x="43" y="0" type="line"/>
      <point x="168" y="0" type="line"/>
      <point x="168" y="147" type="line"/>
      <point x="233" y="147" type="line" smooth="yes"/>
      <point x="366" y="147"/>
      <point x="427" y="217"/>
      <point x="427" y="371" type="curve" smooth="yes"/>
      <point x="427" y="526"/>
      <point x="368" y="593"/>
      <point x="233" y="593" type="curve" smooth="yes"/>
      <point x="168" y="593" type="line"/>
      <point x="168" y="707" type="line"/>
      <point x="43" y="707" type="line"/>
    </contour>
    <contour>
      <point x="168" y="260" type="line"/>
      <point x="168" y="479" type="line"/>
      <point x="229" y="479" type="line" smooth="yes"/>
      <point x="279" y="479"/>
      <point x="301" y="446"/>
      <point x="301" y="371" type="curve" smooth="yes"/>
      <point x="301" y="294"/>
      <point x="279" y="260"/>
      <point x="229" y="260" type="curve" smooth="yes"/>
    </contour>
  </outline>
</glyph>
<glyph name="germandbls" format="2">
  <advance width="430"/>
  <unicode hex="00DF"/>
  <outline>
    <contour>
      <point x="42" y="0" type="line"/>
      <point x="161" y="0" type="line"/>
      <point x="161" y="547" type="line" smooth="yes"/>
      <point x="161" y="588"/>
      <point x="180" y="610"/>
      <point x="215" y="610" type="curve" smooth="yes"/>
      <point x="259.076" y="610"/>
      <point x="267" y="576.102"/>
      <point x="267" y="539" type="curve" smooth="yes"/>
      <point x="267" y="478.489"/>
      <point x="259.289" y="458"/>
      <point x="231" y="458" type="curve" smooth="yes"/>
      <point x="215" y="458" type="line"/>
      <point x="215" y="358" type="line"/>
      <point x="233" y="358" type="line" smooth="yes"/>
      <point x="266.863" y="358"/>
      <point x="272" y="307.524"/>
      <point x="272" y="230" type="curve" smooth="yes"/>
      <point x="272" y="142.007"/>
      <point x="269.491" y="95"/>
      <point x="233" y="95" type="curve" smooth="yes"/>
      <point x="217" y="95" type="line"/>
      <point x="217" y="-5" type="line"/>
      <point x="244" y="-5" type="line" smooth="yes"/>
      <point x="381.213" y="-5"/>
      <point x="391" y="53.418"/>
      <point x="391" y="230" type="curve" smooth="yes"/>
      <point x="391" y="332.726"/>
      <point x="391.43" y="387.898"/>
      <point x="331" y="417" type="curve"/>
      <point x="373" y="445"/>
      <point x="386" y="477"/>
      <point x="386" y="550" type="curve" smooth="yes"/>
      <point x="386" y="655"/>
      <point x="323" y="717"/>
      <point x="215" y="717" type="curve" smooth="yes"/>
      <point x="99.996" y="717"/>
      <point x="42" y="654"/>
      <point x="42" y="531" type="curve" smooth="yes"/>
    </contour>
  </outline>
</glyph>
<glyph name="ae" format="2">
  <advance width="635"/>
  <unicode hex="00E6"/>
  <anchor x="314" y="604" name="top"/>
  <outline>
    <contour>
      <point x="45" y="383" type="line"/>
      <point x="155" y="383" type="line"/>
      <point x="155" y="391" type="line" smooth="yes"/>
      <point x="155" y="424"/>
      <point x="173" y="444"/>
      <point x="204" y="444" type="curve" smooth="yes"/>
      <point x="241.186" y="444"/>
      <point x="254" y="419.901"/>
      <point x="254" y="386" type="curve" smooth="yes"/>
      <point x="254" y="317" type="line"/>
      <point x="209" y="317" type="line" smooth="yes"/>
      <point x="94" y="317"/>
      <point x="31" y="261"/>
      <point x="31" y="159" type="curve" smooth="yes"/>
      <point x="31" y="57"/>
      <point x="94" y="-8"/>
      <point x="193" y="-8" type="curve" smooth="yes"/>
      <point x="238" y="-8"/>
      <point x="276" y="5"/>
      <point x="308" y="32" type="curve"/>
      <point x="335" y="5"/>
      <point x="374" y="-8"/>
      <point x="427" y="-8" type="curve" smooth="yes"/>
      <point x="535" y="-8"/>
      <point x="594" y="52"/>
      <point x="594" y="164" type="curve" smooth="yes"/>
      <point x="594" y="170" type="line"/>
      <point x="478" y="170" type="line"/>
      <point x="478" y="165" type="line" smooth="yes"/>
      <point x="478" y="119"/>
      <point x="461" y="96"/>
      <point x="426" y="96" type="curve" smooth="yes"/>
      <point x="391" y="96"/>
      <point x="373" y="124"/>
      <point x="373" y="179" type="curve" smooth="yes"/>
      <point x="373" y="228" type="line"/>
      <point x="597" y="228" type="line"/>
      <point x="597" y="336" type="line" smooth="yes"/>
      <point x="597" y="476"/>
      <point x="537" y="549"/>
      <point x="423" y="549" type="curve" smooth="yes"/>
      <point x="377" y="549"/>
      <point x="341" y="538"/>
      <point x="314" y="516" type="curve"/>
      <point x="286" y="538"/>
      <point x="250" y="549"/>
      <point x="207" y="549" type="curve" smooth="yes"/>
      <point x="105" y="549"/>
      <point x="45" y="489"/>
      <point x="45" y="387" type="curve" smooth="yes"/>
    </contour>
    <contour>
      <point x="373" y="314" type="line"/>
      <point x="373" y="389.648"/>
      <point x="375.401" y="442"/>
      <point x="426" y="442" type="curve" smooth="yes"/>
      <point x="460" y="442"/>
      <point x="478" y="412"/>
      <point x="478" y="354" type="curve" smooth="yes"/>
      <point x="478" y="314" type="line"/>
    </contour>
    <contour>
      <point x="254" y="234" type="line"/>
      <point x="254" y="162" type="line" smooth="yes"/>
      <point x="254" y="121"/>
      <point x="234" y="95"/>
      <point x="202" y="95" type="curve" smooth="yes"/>
      <point x="168" y="95"/>
      <point x="150" y="119"/>
      <point x="150" y="164" type="curve" smooth="yes"/>
      <point x="150" y="212"/>
      <point x="173" y="234"/>
      <point x="223" y="234" type="curve" smooth="yes"/>
    </contour>
  </outline>
</glyph>
<glyph name="divide" format="2">
  <advance width="429"/>
  <unicode hex="00F7"/>
  <outline>
    <contour>
      <point x="214" y="385" type="curve" smooth="yes"/>
      <point x="250" y="385"/>
      <point x="280" y="415"/>
      <point x="280" y="451" type="curve" smooth="yes"/>
      <point x="280" y="487"/>
      <point x="251" y="515"/>
      <point x="214" y="515" type="curve" smooth="yes"/>
      <point x="178" y="515"/>
      <point x="150" y="487"/>
      <point x="150" y="451" type="curve" smooth="yes"/>
      <point x="150" y="415"/>
      <point x="179" y="385"/>
    </contour>
    <contour>
      <point x="33" y="225" type="line"/>
      <point x="396" y="225" type="line"/>
      <point x="396" y="339" type="line"/>
      <point x="33" y="339" type="line"/>
    </contour>
    <contour>
      <point x="214" y="53" type="curve" smooth="yes"/>
      <point x="251" y="53"/>
      <point x="280" y="81"/>
      <point x="280" y="118" type="curve" smooth="yes"/>
      <point x="280" y="155"/>
      <point x="251" y="183"/>
      <point x="214" y="183" type="curve" smooth="yes"/>
      <point x="178" y="183"/>
      <point x="150" y="154"/>
      <point x="150" y="118" type="curve" smooth="yes"/>
      <point x="150" y="82"/>
      <point x="178" y="53"/>
    </contour>
  </outline>
</glyph>
<glyph name="gcommaaccent" format="2">
  <advance width="419"/>
  <unicode hex="0123"/>
  <outline>
    <component base="g"/>
    <contour>
      <point x="152" y="564" type="line"/>
      <point x="246" y="564" type="line"/>
      <point x="246" y="707" type="line"/>
      <point x="152" y="624" type="line"/>
    </contour>
  </outline>
</glyph>
<glyph name="Lcaron" format="2">
  <advance width="375"/>
  <unicode hex="013D"/>
  <outline>
    <component base="L"/>
    <contour>
      <point x="263" y="517" type="line"/>
      <point x="358" y="600" type="line"/>
      <point x="358" y="707" type="line"/>
      <point x="263" y="707" type="line"/>
    </contour>
  </outline>
</glyph>
<glyph name="OE" format="2">
  <advance width="656"/>
  <unicode hex="0152"/>
  <outline>
    <contour>
      <point x="332" y="0" type="line"/>
      <point x="631" y="0" type="line"/>
      <point x="631" y="113" type="line"/>
      <point x="440" y="113" type="line"/>
      <point x="440" y="303" type="line"/>
      <point x="604" y="303" type="line"/>
      <point x="604" y="416" type="line"/>
      <point x="440" y="416" type="line"/>
      <point x="440" y="593" type="line"/>
      <point x="631" y="593" type="line"/>
      <point x="631" y="707" type="line"/>
      <point x="332" y="707" type="line"/>
      <point x="332" y="685" type="line"/>
      <point x="299" y="706"/>
      <point x="264" y="717"/>
      <point x="226" y="717" type="curve" smooth="yes"/>
      <point x="104" y="717"/>
      <point x="39" y="646"/>
      <point x="39" y="513" type="curve" smooth="yes"/>
      <point x="39" y="195" type="line" smooth="yes"/>
      <point x="39" y="61"/>
      <point x="101" y="-8"/>
      <point x="220" y="-8" type="curve" smooth="yes"/>
      <point x="263" y="-8"/>
      <point x="300" y="4"/>
      <point x="332" y="29" type="curve"/>
    </contour>
    <contour>
      <point x="241" y="105" type="curve" smooth="yes"/>
      <point x="189.99" y="105"/>
      <point x="165" y="140"/>
      <point x="165" y="209" type="curve" smooth="yes"/>
      <point x="165" y="493" type="line" smooth="yes"/>
      <point x="165" y="567"/>
      <point x="190" y="603"/>
      <point x="241" y="603" type="curve" smooth="yes"/>
      <point x="289" y="603"/>
      <point x="314" y="565"/>
      <point x="314" y="493" type="curve" smooth="yes"/>
      <point x="314" y="209" type="line" smooth="yes"/>
      <point x="314" y="142"/>
      <point x="288" y="105"/>
    </contour>
  </outline>
</glyph>
<glyph name="florin" format="2">
  <advance width="399"/>
  <unicode hex="0192"/>
  <outline>
    <contour>
      <point x="7" y="-162" type="line"/>
      <point x="43" y="-162" type="line" smooth="yes"/>
      <point x="153" y="-162"/>
      <point x="207" y="-112"/>
      <point x="222" y="5" type="curve" smooth="yes"/>
      <point x="264" y="324" type="line"/>
      <point x="354" y="324" type="line"/>
      <point x="354" y="431" type="line"/>
      <point x="280" y="431" type="line"/>
      <point x="293" y="530" type="line" smooth="yes"/>
      <point x="300" y="582"/>
      <point x="318" y="599"/>
      <point x="365" y="599" type="curve" smooth="yes"/>
      <point x="392" y="599" type="line"/>
      <point x="392" y="707" type="line"/>
      <point x="351" y="707" type="line" smooth="yes"/>
      <point x="242" y="707"/>
      <point x="187" y="656"/>
      <point x="172" y="540" type="curve" smooth="yes"/>
      <point x="158" y="431" type="line"/>
      <point x="70" y="431" type="line"/>
      <point x="70" y="324" type="line"/>
      <point x="143" y="324" type="line"/>
      <point x="101" y="15" type="line" smooth="yes"/>
      <point x="94.098" y="-35.778"/>
      <point x="77" y="-54"/>
      <point x="30" y="-54" type="curve" smooth="yes"/>
      <point x="7" y="-54" type="line"/>
    </contour>
  </outline>
</glyph>
<glyph name="lbar" format="2">
  <advance width="245"/>
  <unicode hex="019A"/>
  <outline>
    <component base="l"/>
    <contour>
      <point x="9" y="338" type="line"/>
      <point x="231" y="338" type="line"/>
      <point x="231" y="451" type="line"/>
      <point x="9" y="451" type="line"/>
    </contour>
  </outline>
</glyph>
<glyph name="Ocenteredtilde" format="2">
  <advance width="479"/>
  <unicode hex="019F"/>
  <outline>
    <component base="O"/>
    <contour>
      <point x="149.64" y="298" type="line"/>
      <point x="329.36" y="298" type="line"/>
      <point x="329.36" y="411" type="line"/>
      <point x="149.64" y="411" type="line"/>
    </contour>
  </outline>
</glyph>
<glyph name="kcaron" format="2">
  <advance width="429"/>
  <unicode hex="01E9"/>
  <outline>
    <contour>
      <point x="42" y="0" type="line"/>
      <point x="161" y="0" type="line"/>
      <point x="161" y="153" type="line"/>
      <point x="202" y="215" type="line"/>
      <point x="288" y="0" type="line"/>
      <point x="419" y="0" type="line"/>
      <point x="275" y="329" type="line"/>
      <point x="414" y="541" type="line"/>
      <point x="290" y="541" type="line"/>
      <point x="161" y="321" type="line"/>
      <point x="161" y="707" type="line"/>
      <point x="42" y="707" type="line"/>
    </contour>
    <contour>
      <point x="56" y="779" type="line"/>
      <point x="141" y="779" type="line"/>
      <point x="246" y="930" type="line"/>
      <point x="157" y="930" type="line"/>
      <point x="100" y="850" type="line"/>
      <point x="42" y="930" type="line"/>
      <point x="-47" y="930" type="line"/>
    </contour>
  </outline>
</glyph>
<glyph name="dotlessj" format="2">
  <advance width="210"/>
  <unicode hex="0237"/>
  <anchor x="105" y="604" name="top"/>
  <outline>
    <contour>
      <point x="-25" y="-162" type="line"/>
      <point x="-18" y="-162" type="line" smooth="yes"/>
      <point x="104" y="-162"/>
      <point x="165" y="-106"/>
      <point x="165" y="6" type="curve" smooth="yes"/>
      <point x="165" y="541" type="line"/>
      <point x="46" y="541" type="line"/>
      <point x="46" y="13" type="line" smooth="yes"/>
      <point x="46" y="-33"/>
      <point x="25" y="-55"/>
      <point x="-19" y="-55" type="curve" smooth="yes"/>
      <point x="-25" y="-55" type="line"/>
    </contour>
  </outline>
</glyph>
<glyph name="Lbar" format="2">
  <advance width="375"/>
  <unicode hex="023D"/>
  <outline>
    <component base="L"/>
    <contour>
      <point x="9" y="338" type="line"/>
      <point x="291" y="338" type="line"/>
      <point x="291" y="451" type="line"/>
      <point x="9" y="451" type="line"/>
    </contour>
  </outline>
</glyph>
<glyph name="circumflex" format="2">
  <advance width="512"/>
  <unicode hex="02C6"/>
  <outline>
    <contour>
      <point x="109" y="598" type="line"/>
      <point x="198" y="598" type="line"/>
      <point x="256" y="680" type="line"/>
      <point x="313" y="598" type="line"/>
      <point x="402" y="598" type="line"/>
      <point x="297" y="750" type="line"/>
      <point x="212" y="750" type="line"/>
    </contour>
  </outline>
</glyph>
<glyph name="ring" format="2">
  <advance width="512"/>
  <unicode hex="02DA"/>
  <outline>
    <contour>
      <point x="160" y="683" type="curve" smooth="yes"/>
      <point x="160" y="628.747"/>
      <point x="201.747" y="587"/>
      <point x="256" y="587" type="curve" smooth="yes"/>
      <point x="311" y="587"/>
      <point x="352" y="628"/>
      <point x="352" y="683" type="curve" smooth="yes"/>
      <point x="352" y="739.743"/>
      <point x="312.158" y="780"/>
      <point x="256" y="780" type="curve" smooth="yes"/>
      <point x="200.789" y="780"/>
      <point x="160" y="738.786"/>
    </contour>
    <contour>
      <point x="256" y="637" type="curve" smooth="yes"/>
      <point x="232" y="637"/>
      <point x="210" y="659"/>
      <point x="210" y="683" type="curve" smooth="yes"/>
      <point x="210" y="710.293"/>
      <point x="229.287" y="730"/>
      <point x="256" y="730" type="curve" smooth="yes"/>
      <point x="281.926" y="730"/>
      <point x="301" y="710.078"/>
      <point x="301" y="683" type="curve" smooth="yes"/>
      <point x="301" y="657.722"/>
      <point x="280.728" y="637"/>
    </contour>
  </outline>
</glyph>
<glyph name="tilde" format="2">
  <advance width="512"/>
  <unicode hex="02DC"/>
  <outline>
    <contour>
      <point x="140" y="603" type="line"/>
      <point x="164.302" y="632.522"/>
      <point x="181.067" y="643"/>
      <point x="204" y="643" type="curve" smooth="yes"/>
      <point x="243.921" y="643"/>
      <point x="258.974" y="607"/>
      <point x="304" y="607" type="curve" smooth="yes"/>
      <point x="331.329" y="607"/>
      <point x="344.321" y="614.369"/>
      <point x="371" y="645" type="curve"/>
      <point x="371" y="739" type="line"/>
      <point x="352.822" y="720.822"/>
      <point x="335.718" y="699"/>
      <point x="308" y="699" type="curve" smooth="yes"/>
      <point x="266.553" y="699"/>
      <point x="257.46" y="735"/>
      <point x="208" y="735" type="curve" smooth="yes"/>
      <point x="179.77" y="735"/>
      <point x="162.814" y="725.774"/>
      <point x="140" y="698" type="curve"/>
    </contour>
  </outline>
</glyph>
<glyph name="uni0300" format="2">
  <unicode hex="0300"/>
  <anchor x="0" y="604" name="_top"/>
  <outline>
    <contour>
      <point x="-38" y="604" type="line"/>
      <point x="64" y="604" type="line"/>
      <point x="-38" y="743" type="line"/>
      <point x="-164" y="743" type="line"/>
    </contour>
  </outline>
</glyph>
<glyph name="uni0301" format="2">
  <unicode hex="0301"/>
  <anchor x="0" y="604" name="_top"/>
  <outline>
    <contour>
      <point x="-84" y="604" type="line"/>
      <point x="18" y="604" type="line"/>
      <point x="144" y="743" type="line"/>
      <point x="18" y="743" type="line"/>
    </contour>
  </outline>
</glyph>
<glyph name="uni0302" format="2">
  <unicode hex="0302"/>
  <anchor x="0" y="604" name="_top"/>
  <outline>
    <contour>
      <point x="-146.5" y="598" type="line"/>
      <point x="-57.5" y="598" type="line"/>
      <point x="0.5" y="680" type="line"/>
      <point x="57.5" y="598" type="line"/>
      <point x="146.5" y="598" type="line"/>
      <point x="41.5" y="750" type="line"/>
      <point x="-43.5" y="750" type="line"/>
    </contour>
  </outline>
</glyph>
<glyph name="uni0303" format="2">
  <unicode hex="0303"/>
  <anchor x="0" y="604" name="_top"/>
  <outline>
    <contour>
      <point x="-115.5" y="603" type="line"/>
      <point x="-91.198" y="632.522"/>
      <point x="-74.433" y="643"/>
      <point x="-51.5" y="643" type="curve" smooth="yes"/>
      <point x="-11.579" y="643"/>
      <point x="3.474" y="607"/>
      <point x="48.5" y="607" type="curve" smooth="yes"/>
      <point x="75.829" y="607"/>
      <point x="88.821" y="614.369"/>
      <point x="115.5" y="645" type="curve"/>
      <point x="115.5" y="739" type="line"/>
      <point x="97.322" y="720.822"/>
      <point x="80.218" y="699"/>
      <point x="52.5" y="699" type="curve" smooth="yes"/>
      <point x="11.053" y="699"/>
      <point x="1.96" y="735"/>
      <point x="-47.5" y="735" type="curve" smooth="yes"/>
      <point x="-75.73" y="735"/>
      <point x="-92.686" y="725.774"/>
      <point x="-115.5" y="698" type="curve"/>
    </contour>
  </outline>
</glyph>
<glyph name="uni030F" format="2">
  <unicode hex="030F"/>
  <anchor x="0" y="602" name="_top"/>
  <outline>
    <contour>
      <point x="-105.133" y="604" type="line"/>
      <point x="-3.13311" y="604" type="line"/>
      <point x="-105.133" y="743" type="line"/>
      <point x="-231.133" y="743" type="line"/>
    </contour>
    <contour>
      <point x="68.4294" y="604" type="line"/>
      <point x="170.429" y="604" type="line"/>
      <point x="68.4294" y="743" type="line"/>
      <point x="-57.5706" y="743" type="line"/>
    </contour>
  </outline>
</glyph>
<glyph name="uni0312" format="2">
  <unicode hex="0312"/>
  <outline>
    <contour>
      <point x="-83" y="604" type="line"/>
      <point x="43" y="604" type="line"/>
      <point x="144" y="743" type="line"/>
      <point x="43" y="743" type="line"/>
    </contour>
  </outline>
</glyph>
<glyph name="alpha" format="2">
  <advance width="481"/>
  <unicode hex="03B1"/>
  <outline>
    <contour>
      <point x="442" y="115" type="line"/>
      <point x="409" y="115"/>
      <point x="393" y="142"/>
      <point x="393" y="194" type="curve" smooth="yes"/>
      <point x="393" y="346" type="line" smooth="yes"/>
      <point x="393" y="398"/>
      <point x="409" y="425"/>
      <point x="442" y="425" type="curve"/>
      <point x="442" y="527" type="line"/>
      <point x="400" y="527"/>
      <point x="367" y="518"/>
      <point x="341" y="500" type="curve"/>
      <point x="312.191" y="531.426"/>
      <point x="265.565" y="549"/>
      <point x="211" y="549" type="curve" smooth="yes"/>
      <point x="94" y="549"/>
      <point x="39" y="486"/>
      <point x="39" y="353" type="curve" smooth="yes"/>
      <point x="39" y="187" type="line" smooth="yes"/>
      <point x="39" y="56"/>
      <point x="95" y="-8"/>
      <point x="211" y="-8" type="curve" smooth="yes"/>
      <point x="264.252" y="-8"/>
      <point x="314.524" y="10.949"/>
      <point x="341" y="41" type="curve"/>
      <point x="367" y="23"/>
      <point x="400" y="14"/>
      <point x="442" y="14" type="curve"/>
    </contour>
    <contour>
      <point x="210" y="98" type="curve" smooth="yes"/>
      <point x="176" y="98"/>
      <point x="158" y="128"/>
      <point x="158" y="186" type="curve" smooth="yes"/>
      <point x="158" y="354" type="line" smooth="yes"/>
      <point x="158" y="412"/>
      <point x="176" y="442"/>
      <point x="210" y="442" type="curve" smooth="yes"/>
      <point x="245" y="442"/>
      <point x="263" y="412"/>
      <point x="263" y="354" type="curve" smooth="yes"/>
      <point x="263" y="186" type="line" smooth="yes"/>
      <point x="263" y="128"/>
      <point x="245" y="98"/>
    </contour>
  </outline>
</glyph>
<glyph name="Njecyr" format="2">
  <advance width="715"/>
  <unicode hex="040A"/>
  <outline>
    <component base="H"/>
    <contour>
      <point x="397.82" y="0" type="line"/>
      <point x="483" y="0" type="line" smooth="yes"/>
      <point x="618.357" y="0"/>
      <point x="677" y="67.41"/>
      <point x="677" y="223" type="curve" smooth="yes"/>
      <point x="677" y="377.015"/>
      <point x="616.987" y="446"/>
      <point x="483" y="446" type="curve" smooth="yes"/>
      <point x="397.82" y="446" type="line"/>
      <point x="397.82" y="332" type="line"/>
      <point x="479" y="332" type="line" smooth="yes"/>
      <point x="529.101" y="332"/>
      <point x="551" y="298.847"/>
      <point x="551" y="223" type="curve" smooth="yes"/>
      <point x="551" y="146.701"/>
      <point x="528.805" y="112.792"/>
      <point x="479" y="113" type="curve" smooth="yes"/>
      <point x="397.82" y="113.34" type="line"/>
    </contour>
  </outline>
</glyph>
<glyph name="Zhecyr" format="2">
  <advance width="743"/>
  <unicode hex="0416"/>
  <outline>
    <contour>
      <point x="413.64" y="302.664" type="line"/>
      <point x="557.465" y="302.664" type="line"/>
      <point x="557.465" y="415.58" type="line"/>
      <point x="413.64" y="415.58" type="line"/>
    </contour>
    <contour>
      <point x="309" y="0" type="line"/>
      <point x="434" y="0" type="line"/>
      <point x="434" y="707" type="line"/>
      <point x="309" y="707" type="line"/>
    </contour>
    <contour>
      <point x="599" y="0" type="line"/>
      <point x="733" y="0" type="line"/>
      <point x="557.19" y="430.219" type="line"/>
      <point x="471.015" y="315.964" type="line"/>
    </contour>
    <contour>
      <point x="453.083" y="315.964" type="line"/>
      <point x="538.747" y="316.102" type="line"/>
      <point x="720.624" y="707" type="line"/>
      <point x="594.624" y="707" type="line"/>
      <point x="453.083" y="398.155" type="line"/>
    </contour>
    <contour>
      <point x="185.535" y="302.664" type="line"/>
      <point x="329.36" y="302.664" type="line"/>
      <point x="329.36" y="415.58" type="line"/>
      <point x="185.535" y="415.58" type="line"/>
    </contour>
    <contour>
      <point x="309" y="0" type="line"/>
      <point x="434" y="0" type="line"/>
      <point x="434" y="707" type="line"/>
      <point x="309" y="707" type="line"/>
    </contour>
    <contour>
      <point x="10" y="0" type="line"/>
      <point x="144" y="0" type="line"/>
      <point x="271.985" y="315.964" type="line"/>
      <point x="185.81" y="430.219" type="line"/>
    </contour>
    <contour>
      <point x="204.253" y="316.102" type="line"/>
      <point x="289.917" y="315.964" type="line"/>
      <point x="289.917" y="398.155" type="line"/>
      <point x="148.376" y="707" type="line"/>
      <point x="22.376" y="707" type="line"/>
    </contour>
  </outline>
</glyph>
<glyph name="Zecyr" format="2">
  <advance width="466"/>
  <unicode hex="0417"/>
  <outline>
    <contour>
      <point x="43.936" y="193.012" type="line"/>
      <point x="43.936" y="181.972" type="line" smooth="yes"/>
      <point x="43.936" y="65.389"/>
      <point x="102.813" y="-8"/>
      <point x="244" y="-8" type="curve" smooth="yes"/>
      <point x="364.561" y="-8"/>
      <point x="428" y="65.438"/>
      <point x="428" y="205" type="curve" smooth="yes"/>
      <point x="428" y="221" type="line" smooth="yes"/>
      <point x="428" y="304.088"/>
      <point x="402.583" y="346.559"/>
      <point x="349" y="371" type="curve"/>
      <point x="402" y="395"/>
      <point x="426" y="441"/>
      <point x="426" y="516" type="curve" smooth="yes"/>
      <point x="426" y="530" type="line" smooth="yes"/>
      <point x="426" y="637.133"/>
      <point x="353.997" y="717"/>
      <point x="244" y="717" type="curve" smooth="yes"/>
      <point x="99.164" y="717"/>
      <point x="44.057" y="634.651"/>
      <point x="44.057" y="525.705" type="curve" smooth="yes"/>
      <point x="44.057" y="514.012" type="line"/>
      <point x="170.496" y="514" type="line"/>
      <point x="170.496" y="525.705" type="line" smooth="yes"/>
      <point x="170.496" y="566.279"/>
      <point x="177.998" y="604"/>
      <point x="237" y="604" type="curve" smooth="yes"/>
      <point x="288.035" y="604"/>
      <point x="300" y="570.017"/>
      <point x="300" y="508" type="curve" smooth="yes"/>
      <point x="300" y="496" type="line" smooth="yes"/>
      <point x="300" y="443.217"/>
      <point x="284.031" y="423"/>
      <point x="231" y="423" type="curve" smooth="yes"/>
      <point x="199.82" y="423" type="line"/>
      <point x="199.82" y="314" type="line"/>
      <point x="230" y="314" type="line" smooth="yes"/>
      <point x="283.841" y="314"/>
      <point x="302" y="289.466"/>
      <point x="302" y="229" type="curve" smooth="yes"/>
      <point x="302" y="214" type="line" smooth="yes"/>
      <point x="302" y="135.689"/>
      <point x="283.417" y="105"/>
      <point x="236" y="105" type="curve" smooth="yes"/>
      <point x="196.53" y="105"/>
      <point x="170.054" y="135.903"/>
      <point x="170.054" y="181.972" type="curve" smooth="yes"/>
      <point x="170.054" y="193" type="line"/>
    </contour>
  </outline>
</glyph>
<glyph name="Icyr" format="2">
  <advance width="482"/>
  <unicode hex="0418"/>
  <anchor x="227" y="770" name="top"/>
  <outline>
    <contour>
      <point x="43" y="0" type="line"/>
      <point x="199" y="0" type="line"/>
      <point x="289.384" y="341.849" type="line" smooth="yes"/>
      <point x="297.776" y="373.586"/>
      <point x="314.018" y="443.486"/>
      <point x="321" y="477" type="curve"/>
      <point x="324" y="477" type="line"/>
      <point x="316.427" y="439.512"/>
      <point x="313" y="343.821"/>
      <point x="313" y="307.34" type="curve" smooth="yes"/>
      <point x="313" y="0" type="line"/>
      <point x="439" y="0" type="line"/>
      <point x="439" y="707" type="line"/>
      <point x="283" y="707" type="line"/>
      <point x="182.009" y="361.166" type="line" smooth="yes"/>
      <point x="172.474" y="328.515"/>
      <point x="166.157" y="284.868"/>
      <point x="161" y="230" type="curve"/>
      <point x="158" y="230" type="line"/>
      <point x="164.491" y="280"/>
      <point x="169" y="363.376"/>
      <point x="169" y="400.186" type="curve" smooth="yes"/>
      <point x="169" y="707" type="line"/>
      <point x="43" y="707" type="line"/>
    </contour>
  </outline>
</glyph>
<glyph name="Checyr" format="2">
  <advance width="472"/>
  <unicode hex="0427"/>
  <outline>
    <contour>
      <point x="302" y="334.951" type="line"/>
      <point x="285.543" y="325.667"/>
      <point x="253.537" y="325"/>
      <point x="236" y="325" type="curve" smooth="yes"/>
      <point x="191" y="325"/>
      <point x="169" y="353"/>
      <point x="169" y="408" type="curve" smooth="yes"/>
      <point x="169" y="707" type="line"/>
      <point x="43" y="707" type="line"/>
      <point x="43" y="405" type="line" smooth="yes"/>
      <point x="43" y="292"/>
      <point x="123" y="212"/>
      <point x="236" y="212" type="curve" smooth="yes"/>
      <point x="287.816" y="212"/>
      <point x="325.334" y="224.217"/>
      <point x="365.907" y="250.953" type="curve"/>
      <point x="365.907" y="334.951" type="line"/>
    </contour>
    <contour>
      <point x="301.996" y="0" type="line"/>
      <point x="428.004" y="0" type="line"/>
      <point x="428.004" y="707" type="line"/>
      <point x="301.996" y="707" type="line"/>
    </contour>
  </outline>
</glyph>
<glyph name="Shacyr" format="2">
  <advance width="806"/>
  <unicode hex="0428"/>
  <anchor x="677" y="695" name="top"/>
  <outline>
    <contour>
      <point x="43.996" y="0" type="line"/>
      <point x="170.004" y="0" type="line"/>
      <point x="170.004" y="707" type="line"/>
      <point x="43.996" y="707" type="line"/>
    </contour>
    <contour>
      <point x="340.125" y="0" type="line"/>
      <point x="466.133" y="0" type="line"/>
      <point x="466.133" y="707" type="line"/>
      <point x="340.125" y="707" type="line"/>
    </contour>
    <contour>
      <point x="636.392" y="0" type="line"/>
      <point x="762.4" y="0" type="line"/>
      <point x="762.4" y="707" type="line"/>
      <point x="636.392" y="707" type="line"/>
    </contour>
    <contour>
      <point x="127.32" y="-0.1" type="line"/>
      <point x="697.341" y="-0.1" type="line"/>
      <point x="697.341" y="113.9" type="line"/>
      <point x="127.32" y="113.9" type="line"/>
    </contour>
  </outline>
</glyph>
<glyph name="Yucyr" format="2">
  <advance width="709"/>
  <unicode hex="042E"/>
  <anchor x="434" y="770" name="top"/>
  <outline>
    <component base="O" xOffset="230"/>
    <contour>
      <point x="148.64" y="303" type="line"/>
      <point x="322.36" y="303" type="line"/>
      <point x="322.36" y="416" type="line"/>
      <point x="148.64" y="416" type="line"/>
    </contour>
    <contour>
      <point x="43" y="0" type="line"/>
      <point x="169" y="0" type="line"/>
      <point x="169" y="707" type="line"/>
      <point x="43" y="707" type="line"/>
    </contour>
  </outline>
</glyph>
<glyph name="vecyr" format="2">
  <advance width="419"/>
  <unicode hex="0432"/>
  <outline>
    <contour>
      <point x="141" y="0" type="line"/>
      <point x="244" y="0" type="line" smooth="yes"/>
      <point x="328.769" y="0"/>
      <point x="378" y="62.09"/>
      <point x="378" y="169" type="curve" smooth="yes"/>
      <point x="378" y="235"/>
      <point x="346" y="277"/>
      <point x="305" y="296" type="curve"/>
      <point x="305" y="299" type="line"/>
      <point x="341.259" y="319.078"/>
      <point x="358" y="351"/>
      <point x="358" y="415" type="curve" smooth="yes"/>
      <point x="358" y="487.433"/>
      <point x="301.032" y="541"/>
      <point x="224" y="541" type="curve" smooth="yes"/>
      <point x="141" y="541" type="line"/>
      <point x="141" y="422" type="line"/>
      <point x="203" y="422" type="line" smooth="yes"/>
      <point x="227" y="422"/>
      <point x="239" y="401"/>
      <point x="239" y="386" type="curve" smooth="yes"/>
      <point x="239" y="369"/>
      <point x="227" y="350"/>
      <point x="203" y="350" type="curve" smooth="yes"/>
      <point x="141" y="350" type="line"/>
      <point x="141" y="230" type="line"/>
      <point x="210" y="230" type="line" smooth="yes"/>
      <point x="245" y="230"/>
      <point x="259" y="204"/>
      <point x="259" y="170" type="curve" smooth="yes"/>
      <point x="259" y="136"/>
      <point x="243" y="120"/>
      <point x="210" y="120" type="curve" smooth="yes"/>
      <point x="141" y="120" type="line"/>
    </contour>
    <contour>
      <point x="42" y="0" type="line"/>
      <point x="161" y="0" type="line"/>
      <point x="161" y="541" type="line"/>
      <point x="42" y="541" type="line"/>
    </contour>
  </outline>
</glyph>
<glyph name="gecyr" format="2">
  <advance width="313"/>
  <unicode hex="0433"/>
  <anchor x="178" y="604" name="top"/>
  <outline>
    <contour>
      <point x="299" y="422" type="line"/>
      <point x="299" y="541" type="line"/>
      <point x="42" y="541" type="line"/>
      <point x="42" y="421.64" type="line"/>
    </contour>
    <contour>
      <point x="42" y="0" type="line"/>
      <point x="161" y="0" type="line"/>
      <point x="161" y="541.001" type="line"/>
      <point x="42" y="541" type="line"/>
    </contour>
  </outline>
</glyph>
<glyph name="zecyr" format="2">
  <advance width="446"/>
  <unicode hex="0437"/>
  <outline>
    <contour>
      <point x="39.082" y="165.056" type="line"/>
      <point x="39.082" y="156.941" type="line" smooth="yes"/>
      <point x="39.082" y="54.01"/>
      <point x="124.446" y="-8"/>
      <point x="223.823" y="-8" type="curve" smooth="yes"/>
      <point x="328.229" y="-8"/>
      <point x="404.814" y="60.064"/>
      <point x="404.814" y="152.854" type="curve" smooth="yes"/>
      <point x="404.814" y="177.011" type="line" smooth="yes"/>
      <point x="404.814" y="236.941"/>
      <point x="371.543" y="294.17"/>
      <point x="332" y="302.256" type="curve"/>
      <point x="332" y="305.256" type="line"/>
      <point x="369.774" y="317.554"/>
      <point x="394.898" y="357.005"/>
      <point x="394.898" y="404.022" type="curve" smooth="yes"/>
      <point x="394.898" y="415.885" type="line" smooth="yes"/>
      <point x="394.898" y="491.128"/>
      <point x="323.912" y="549"/>
      <point x="225.114" y="549" type="curve" smooth="yes"/>
      <point x="116.637" y="549"/>
      <point x="39.091" y="486.699"/>
      <point x="39.091" y="385.559" type="curve" smooth="yes"/>
      <point x="39.091" y="377" type="line"/>
      <point x="158.164" y="377" type="line"/>
      <point x="158.164" y="384.886" type="line" smooth="yes"/>
      <point x="158.164" y="419.157"/>
      <point x="185.756" y="442"/>
      <point x="223.208" y="442" type="curve" smooth="yes"/>
      <point x="253.321" y="442"/>
      <point x="275.803" y="424.482"/>
      <point x="275.803" y="401.018" type="curve" smooth="yes"/>
      <point x="275.803" y="388.116" type="line" smooth="yes"/>
      <point x="275.803" y="357.524"/>
      <point x="260.941" y="340"/>
      <point x="234.995" y="340" type="curve" smooth="yes"/>
      <point x="186.341" y="340" type="line"/>
      <point x="186.341" y="240" type="line"/>
      <point x="227.741" y="240" type="line" smooth="yes"/>
      <point x="265.556" y="240"/>
      <point x="285.831" y="215.537"/>
      <point x="285.831" y="169.912" type="curve" smooth="yes"/>
      <point x="285.831" y="159.91" type="line" smooth="yes"/>
      <point x="285.831" y="125.703"/>
      <point x="262.175" y="98"/>
      <point x="225.659" y="98" type="curve" smooth="yes"/>
      <point x="186.178" y="98"/>
      <point x="158.142" y="121.266"/>
      <point x="158.142" y="158.464" type="curve" smooth="yes"/>
      <point x="158.142" y="165" type="line"/>
    </contour>
  </outline>
</glyph>
<glyph name="icyr" format="2">
  <advance width="435"/>
  <unicode hex="0438"/>
  <anchor x="213" y="604" name="top"/>
  <outline>
    <contour>
      <point x="274" y="0" type="line"/>
      <point x="393" y="0" type="line"/>
      <point x="393" y="541" type="line"/>
      <point x="291" y="541" type="line"/>
      <point x="285.9" y="501"/>
      <point x="274" y="251"/>
      <point x="274" y="211" type="curve" smooth="yes"/>
    </contour>
    <contour>
      <point x="42" y="0" type="line"/>
      <point x="144" y="0" type="line"/>
      <point x="154.2" y="40"/>
      <point x="161" y="290"/>
      <point x="161" y="330" type="curve" smooth="yes"/>
      <point x="161" y="541" type="line"/>
      <point x="42" y="541" type="line"/>
    </contour>
    <contour>
      <point x="117" y="0" type="line"/>
      <point x="171" y="0" type="line"/>
      <point x="251" y="211" type="line" smooth="yes"/>
      <point x="259.575" y="233.616"/>
      <point x="269.837" y="271.657"/>
      <point x="274" y="289" type="curve"/>
      <point x="318" y="289" type="line"/>
      <point x="318" y="541" type="line"/>
      <point x="264" y="541" type="line"/>
      <point x="184" y="330" type="line" smooth="yes"/>
      <point x="177.798" y="313.643"/>
      <point x="166.865" y="275.067"/>
      <point x="161" y="252" type="curve"/>
      <point x="117" y="252" type="line"/>
    </contour>
  </outline>
</glyph>
<glyph name="kacyr" format="2">
  <advance width="429"/>
  <unicode hex="043A"/>
  <anchor x="214" y="604" name="top"/>
  <outline>
    <contour>
      <point x="42" y="0" type="line"/>
      <point x="161" y="0" type="line"/>
      <point x="161" y="541" type="line"/>
      <point x="42" y="541" type="line"/>
    </contour>
    <contour>
      <point x="153" y="308" type="line"/>
      <point x="262" y="308" type="line"/>
      <point x="414" y="541" type="line"/>
      <point x="290" y="541" type="line"/>
    </contour>
    <contour>
      <point x="288" y="0" type="line"/>
      <point x="419" y="0" type="line"/>
      <point x="269" y="343" type="line"/>
      <point x="150" y="343" type="line"/>
    </contour>
    <contour>
      <point x="141" y="230" type="line"/>
      <point x="273" y="230" type="line"/>
      <point x="273" y="350" type="line"/>
      <point x="141" y="350" type="line"/>
    </contour>
  </outline>
</glyph>
<glyph name="elcyr" format="2">
  <advance width="449"/>
  <unicode hex="043B"/>
  <outline>
    <contour>
      <point x="288" y="0" type="line"/>
      <point x="407" y="0" type="line"/>
      <point x="407" y="541" type="line"/>
      <point x="288" y="541" type="line"/>
    </contour>
    <contour>
      <point x="190" y="421.64" type="line"/>
      <point x="328.243" y="422" type="line"/>
      <point x="328.243" y="541" type="line"/>
      <point x="190" y="541.004" type="line"/>
    </contour>
    <contour>
      <point x="11.311" y="119.2" type="curve"/>
      <point x="10.835" y="0.401" type="line"/>
      <point x="116.624" y="-0.125"/>
      <point x="184.575" y="50.28"/>
      <point x="190.595" y="133.745" type="curve" smooth="yes"/>
      <point x="220" y="541.401" type="line"/>
      <point x="101" y="541.401" type="line"/>
      <point x="72.335" y="191.282" type="line" smooth="yes"/>
      <point x="68.877" y="149.051"/>
      <point x="49.14" y="119.2"/>
    </contour>
  </outline>
</glyph>
<glyph name="pecyr" format="2">
  <advance width="416"/>
  <unicode hex="043F"/>
  <outline>
    <contour>
      <point x="255" y="0" type="line"/>
      <point x="374" y="0" type="line"/>
      <point x="374" y="541" type="line"/>
      <point x="255" y="541" type="line"/>
    </contour>
    <contour>
      <point x="42" y="0" type="line"/>
      <point x="161" y="0" type="line"/>
      <point x="161" y="541" type="line"/>
      <point x="42" y="541" type="line"/>
    </contour>
    <contour>
      <point x="137" y="420.725" type="line"/>
      <point x="275.243" y="421.085" type="line"/>
      <point x="275.243" y="541.085" type="line"/>
      <point x="137" y="541.085" type="line"/>
    </contour>
  </outline>
</glyph>
<glyph name="tecyr" format="2">
  <advance width="357"/>
  <unicode hex="0442"/>
  <anchor x="178" y="604" name="top"/>
  <outline>
    <contour>
      <point x="14" y="421.64" type="line"/>
      <point x="342.1" y="422" type="line"/>
      <point x="342.1" y="541" type="line"/>
      <point x="14" y="541" type="line"/>
    </contour>
    <contour>
      <point x="119" y="0" type="line"/>
      <point x="238" y="0" type="line"/>
      <point x="238" y="541.001" type="line"/>
      <point x="119" y="541" type="line"/>
    </contour>
  </outline>
</glyph>
<glyph name="tsecyr" format="2">
  <advance width="456"/>
  <unicode hex="0446"/>
  <outline>
    <contour>
      <point x="259" y="0" type="line"/>
      <point x="378" y="0" type="line"/>
      <point x="378" y="541" type="line"/>
      <point x="259" y="541" type="line"/>
    </contour>
    <contour>
      <point x="42" y="0" type="line"/>
      <point x="161" y="0" type="line"/>
      <point x="161" y="541" type="line"/>
      <point x="42" y="541" type="line"/>
    </contour>
    <contour>
      <point x="141" y="-0.076" type="line"/>
      <point x="279.243" y="0.284" type="line"/>
      <point x="279.243" y="119.284" type="line"/>
      <point x="141" y="119.284" type="line"/>
    </contour>
    <contour>
      <point x="326.654" y="-170" type="line"/>
      <point x="445.654" y="-170" type="line"/>
      <point x="445.654" y="119" type="line"/>
      <point x="306.654" y="119" type="line"/>
      <point x="306.654" y="-0.492" type="line"/>
      <point x="326.654" y="-0.492" type="line"/>
    </contour>
  </outline>
</glyph>
<glyph name="checyr" format="2">
  <advance width="420"/>
  <unicode hex="0447"/>
  <outline>
    <contour>
      <point x="175" y="169.448" type="curve" smooth="yes"/>
      <point x="216.158" y="169.448"/>
      <point x="268.598" y="176.628"/>
      <point x="308" y="195.907" type="curve"/>
      <point x="308" y="285.206" type="line"/>
      <point x="259" y="285.206" type="line"/>
      <point x="247.243" y="277.518"/>
      <point x="223.982" y="275.448"/>
      <point x="210" y="275.448" type="curve" smooth="yes"/>
      <point x="164.069" y="275.448"/>
      <point x="161" y="314.735"/>
      <point x="161" y="344.855" type="curve" smooth="yes"/>
      <point x="161" y="541" type="line"/>
      <point x="42" y="541" type="line"/>
      <point x="42" y="316.935" type="line" smooth="yes"/>
      <point x="42" y="236.94"/>
      <point x="72.671" y="169.448"/>
    </contour>
    <contour>
      <point x="258.905" y="0" type="line"/>
      <point x="378" y="0" type="line"/>
      <point x="378" y="541" type="line"/>
      <point x="259" y="541" type="line"/>
    </contour>
  </outline>
</glyph>
<glyph name="yacyr" format="2">
  <advance width="438"/>
  <unicode hex="044F"/>
  <anchor x="244" y="604" name="top"/>
  <outline>
    <contour>
      <point x="297" y="150" type="line"/>
      <point x="297" y="270" type="line"/>
      <point x="238.387" y="270" type="line" smooth="yes"/>
      <point x="202.283" y="270"/>
      <point x="169.016" y="301.121"/>
      <point x="169.016" y="346" type="curve" smooth="yes"/>
      <point x="169.016" y="391.769"/>
      <point x="202.283" y="422"/>
      <point x="238.387" y="422" type="curve" smooth="yes"/>
      <point x="297" y="422" type="line"/>
      <point x="297" y="541" type="line"/>
      <point x="224" y="541" type="line" smooth="yes"/>
      <point x="97.878" y="541"/>
      <point x="50.016" y="435.307"/>
      <point x="50.016" y="344.633" type="curve" smooth="yes"/>
      <point x="50.016" y="243.398"/>
      <point x="99.69" y="175.444"/>
      <point x="187.482" y="150.288" type="curve"/>
    </contour>
    <contour>
      <point x="396" y="541" type="line"/>
      <point x="277" y="541" type="line"/>
      <point x="277" y="0" type="line"/>
      <point x="396" y="0" type="line"/>
    </contour>
    <contour>
      <point x="161.215" y="0" type="line"/>
      <point x="248.821" y="244.46" type="line"/>
      <point x="138.543" y="258.388" type="line"/>
      <point x="41.386" y="0" type="line"/>
    </contour>
  </outline>
</glyph>
<glyph name="djecyr" format="2">
  <advance width="419"/>
  <unicode hex="0452"/>
  <anchor x="244.5" y="604" name="top"/>
  <outline>
    <contour>
      <point x="0" y="598" type="line"/>
      <point x="282" y="598" type="line"/>
      <point x="282" y="661" type="line"/>
      <point x="0" y="661" type="line"/>
    </contour>
    <contour>
      <point x="42" y="0" type="line"/>
      <point x="161" y="0" type="line"/>
      <point x="161" y="385" type="line" smooth="yes"/>
      <point x="161" y="417.696"/>
      <point x="174.161" y="442"/>
      <point x="210" y="442" type="curve" smooth="yes"/>
      <point x="244.075" y="442"/>
      <point x="259" y="416.353"/>
      <point x="259" y="385" type="curve" smooth="yes"/>
      <point x="259" y="0" type="line"/>
      <point x="378" y="0" type="line"/>
      <point x="378" y="386" type="line" smooth="yes"/>
      <point x="378" y="496"/>
      <point x="335" y="549"/>
      <point x="246" y="549" type="curve" smooth="yes"/>
      <point x="214" y="549"/>
      <point x="185" y="534"/>
      <point x="161" y="506" type="curve"/>
      <point x="161" y="707" type="line"/>
      <point x="42" y="707" type="line"/>
    </contour>
    <contour>
      <point x="188.211" y="-162" type="line"/>
      <point x="195.211" y="-162" type="line" smooth="yes"/>
      <point x="317.211" y="-162"/>
      <point x="378.211" y="-106"/>
      <point x="378.211" y="6" type="curve" smooth="yes"/>
      <point x="378.211" y="99.956" type="line"/>
      <point x="259.211" y="99.956" type="line"/>
      <point x="259.211" y="13" type="line" smooth="yes"/>
      <point x="259.211" y="-33"/>
      <point x="238.211" y="-55"/>
      <point x="194.211" y="-55" type="curve" smooth="yes"/>
      <point x="188.211" y="-55" type="line"/>
    </contour>
  </outline>
</glyph>
<glyph name="quoteright" format="2">
  <advance width="175"/>
  <unicode hex="2019"/>
  <anchor x="145" y="707" name="_dot"/>
  <outline>
    <contour>
      <point x="30" y="407" type="line"/>
      <point x="145" y="500" type="line"/>
      <point x="145" y="707" type="line"/>
      <point x="30" y="707" type="line"/>
    </contour>
  </outline>
</glyph>
<glyph name="quotedblleft" format="2">
  <advance width="359"/>
  <unicode hex="201C"/>
  <outline>
    <contour>
      <point x="214" y="444" type="line"/>
      <point x="330" y="444" type="line"/>
      <point x="330" y="744" type="line"/>
      <point x="214" y="651" type="line"/>
    </contour>
    <contour>
      <point x="30" y="444" type="line"/>
      <point x="145" y="444" type="line"/>
      <point x="145" y="744" type="line"/>
      <point x="30" y="651" type="line"/>
    </contour>
  </outline>
</glyph>
<glyph name="quotedblbase" format="2">
  <advance width="359"/>
  <unicode hex="201E"/>
  <outline>
    <contour>
      <point x="30" y="-164" type="line"/>
      <point x="145" y="-71" type="line"/>
      <point x="145" y="136" type="line"/>
      <point x="30" y="136" type="line"/>
    </contour>
    <contour>
      <point x="214" y="-164" type="line"/>
      <point x="329" y="-71" type="line"/>
      <point x="329" y="136" type="line"/>
      <point x="214" y="136" type="line"/>
    </contour>
  </outline>
</glyph>
<glyph name="daggerdbl" format="2">
  <advance width="466"/>
  <unicode hex="2021"/>
  <outline>
    <contour>
      <point x="171" y="-162" type="line"/>
      <point x="297" y="-162" type="line"/>
      <point x="297" y="57" type="line"/>
      <point x="425" y="57" type="line"/>
      <point x="425" y="171" type="line"/>
      <point x="297" y="171" type="line"/>
      <point x="297" y="382" type="line"/>
      <point x="425" y="382" type="line"/>
      <point x="425" y="496" type="line"/>
      <point x="297" y="496" type="line"/>
      <point x="297" y="707" type="line"/>
      <point x="171" y="707" type="line"/>
      <point x="171" y="496" type="line"/>
      <point x="42" y="496" type="line"/>
      <point x="42" y="382" type="line"/>
      <point x="171" y="382" type="line"/>
      <point x="171" y="171" type="line"/>
      <point x="42" y="171" type="line"/>
      <point x="42" y="57" type="line"/>
      <point x="171" y="57" type="line"/>
    </contour>
  </outline>
</glyph>
<glyph name="bullet" format="2">
  <advance width="405"/>
  <unicode hex="2022"/>
  <outline>
    <contour>
      <point x="62" y="315" type="curve" smooth="yes"/>
      <point x="62" y="235"/>
      <point x="122" y="176"/>
      <point x="202" y="176" type="curve" smooth="yes"/>
      <point x="282" y="176"/>
      <point x="342" y="235"/>
      <point x="342" y="315" type="curve" smooth="yes"/>
      <point x="342" y="396"/>
      <point x="283" y="455"/>
      <point x="202" y="455" type="curve" smooth="yes"/>
      <point x="121" y="455"/>
      <point x="62" y="396"/>
    </contour>
  </outline>
</glyph>
<glyph name="perthousand" format="2">
  <advance width="1071"/>
  <unicode hex="2030"/>
  <outline>
    <contour>
      <point x="215" y="0" type="line"/>
      <point x="299" y="0" type="line"/>
      <point x="565" y="715" type="line"/>
      <point x="481" y="715" type="line"/>
    </contour>
    <contour>
      <point x="145" y="272" type="curve" smooth="yes"/>
      <point x="221" y="272"/>
      <point x="259" y="310"/>
      <point x="259" y="387" type="curve" smooth="yes"/>
      <point x="259" y="598" type="line" smooth="yes"/>
      <point x="259" y="675"/>
      <point x="221" y="713"/>
      <point x="145" y="713" type="curve" smooth="yes"/>
      <point x="70" y="713"/>
      <point x="32" y="675"/>
      <point x="32" y="598" type="curve" smooth="yes"/>
      <point x="32" y="387" type="line" smooth="yes"/>
      <point x="32" y="310"/>
      <point x="70" y="272"/>
    </contour>
    <contour>
      <point x="145" y="348" type="curve" smooth="yes"/>
      <point x="120.763" y="347.911"/>
      <point x="116" y="369.074"/>
      <point x="116" y="399" type="curve" smooth="yes"/>
      <point x="116" y="586" type="line" smooth="yes"/>
      <point x="116" y="613.839"/>
      <point x="118.074" y="637"/>
      <point x="145" y="637" type="curve" smooth="yes"/>
      <point x="171.926" y="637"/>
      <point x="176" y="613.839"/>
      <point x="176" y="586" type="curve" smooth="yes"/>
      <point x="176" y="399" type="line" smooth="yes"/>
      <point x="176" y="367.069"/>
      <point x="169.237" y="348.089"/>
    </contour>
    <contour>
      <point x="634" y="-8" type="curve" smooth="yes"/>
      <point x="710" y="-8"/>
      <point x="748" y="30"/>
      <point x="748" y="107" type="curve" smooth="yes"/>
      <point x="748" y="318" type="line" smooth="yes"/>
      <point x="748" y="395"/>
      <point x="710" y="433"/>
      <point x="634" y="433" type="curve" smooth="yes"/>
      <point x="559" y="433"/>
      <point x="521" y="395"/>
      <point x="521" y="318" type="curve" smooth="yes"/>
      <point x="521" y="107" type="line" smooth="yes"/>
      <point x="521" y="30"/>
      <point x="559" y="-8"/>
    </contour>
    <contour>
      <point x="634" y="68" type="curve" smooth="yes"/>
      <point x="609.763" y="67.911"/>
      <point x="605" y="89.074"/>
      <point x="605" y="119" type="curve" smooth="yes"/>
      <point x="605" y="306" type="line" smooth="yes"/>
      <point x="605" y="333.839"/>
      <point x="607.074" y="357"/>
      <point x="634" y="357" type="curve" smooth="yes"/>
      <point x="660.926" y="357"/>
      <point x="665" y="333.839"/>
      <point x="665" y="306" type="curve" smooth="yes"/>
      <point x="665" y="119" type="line" smooth="yes"/>
      <point x="665" y="87.069"/>
      <point x="658.237" y="68.089"/>
    </contour>
    <contour>
      <point x="925" y="-8" type="curve" smooth="yes"/>
      <point x="1001" y="-8"/>
      <point x="1039" y="30"/>
      <point x="1039" y="107" type="curve" smooth="yes"/>
      <point x="1039" y="318" type="line" smooth="yes"/>
      <point x="1039" y="395"/>
      <point x="1001" y="433"/>
      <point x="925" y="433" type="curve" smooth="yes"/>
      <point x="850" y="433"/>
      <point x="812" y="395"/>
      <point x="812" y="318" type="curve" smooth="yes"/>
      <point x="812" y="107" type="line" smooth="yes"/>
      <point x="812" y="30"/>
      <point x="850" y="-8"/>
    </contour>
    <contour>
      <point x="925" y="68" type="curve" smooth="yes"/>
      <point x="900.763" y="67.911"/>
      <point x="896" y="89.074"/>
      <point x="896" y="119" type="curve" smooth="yes"/>
      <point x="896" y="306" type="line" smooth="yes"/>
      <point x="896" y="333.839"/>
      <point x="898.074" y="357"/>
      <point x="925" y="357" type="curve" smooth="yes"/>
      <point x="951.926" y="357"/>
      <point x="956" y="333.839"/>
      <point x="956" y="306" type="curve" smooth="yes"/>
      <point x="956" y="119" type="line" smooth="yes"/>
      <point x="956" y="87.069"/>
      <point x="949.237" y="68.089"/>
    </contour>
  </outline>
</glyph>
<glyph name="guilsinglleft" format="2">
  <advance width="254"/>
  <unicode hex="2039"/>
  <outline>
    <contour>
      <point x="213" y="68" type="line"/>
      <point x="213" y="180" type="line"/>
      <point x="125" y="270" type="line"/>
      <point x="213" y="360" type="line"/>
      <point x="213" y="473" type="line"/>
      <point x="14" y="270" type="line"/>
    </contour>
  </outline>
</glyph>
<glyph name="trademark" format="2">
  <advance width="635"/>
  <unicode hex="2122"/>
  <outline>
    <contour>
      <point x="95" y="303" type="line"/>
      <point x="181" y="303" type="line"/>
      <point x="181" y="628" type="line"/>
      <point x="256" y="628" type="line"/>
      <point x="256" y="707" type="line"/>
      <point x="22" y="707" type="line"/>
      <point x="22" y="628" type="line"/>
      <point x="95" y="628" type="line"/>
    </contour>
    <contour>
      <point x="299" y="303" type="line"/>
      <point x="379" y="303" type="line"/>
      <point x="379" y="513" type="line"/>
      <point x="381" y="513" type="line"/>
      <point x="421" y="367" type="line"/>
      <point x="472" y="367" type="line"/>
      <point x="511" y="513" type="line"/>
      <point x="513" y="513" type="line"/>
      <point x="513" y="303" type="line"/>
      <point x="593" y="303" type="line"/>
      <point x="593" y="707" type="line"/>
      <point x="507" y="707" type="line"/>
      <point x="450" y="483" type="line"/>
      <point x="447" y="483" type="line"/>
      <point x="386" y="707" type="line"/>
      <point x="299" y="707" type="line"/>
    </contour>
  </outline>
</glyph>
<glyph name="fi" format="2">
  <advance width="504"/>
  <unicode hex="FB01"/>
  <outline>
    <contour>
      <point x="82" y="0" type="line"/>
      <point x="200" y="0" type="line"/>
      <point x="200" y="458" type="line"/>
      <point x="272" y="458" type="line"/>
      <point x="272" y="541" type="line"/>
      <point x="200" y="541" type="line"/>
      <point x="200" y="563" type="line" smooth="yes"/>
      <point x="200" y="605.686"/>
      <point x="213.779" y="623"/>
      <point x="257" y="623" type="curve" smooth="yes"/>
      <point x="272" y="623" type="line"/>
      <point x="272" y="707" type="line"/>
      <point x="221" y="707" type="line" smooth="yes"/>
      <point x="127.995" y="707"/>
      <point x="82" y="661"/>
      <point x="82" y="571" type="curve" smooth="yes"/>
      <point x="82" y="541" type="line"/>
      <point x="28" y="541" type="line"/>
      <point x="28" y="458" type="line"/>
      <point x="82" y="458" type="line"/>
    </contour>
    <contour>
      <point x="340" y="0" type="line"/>
      <point x="459" y="0" type="line"/>
      <point x="459" y="541" type="line"/>
      <point x="340" y="541" type="line"/>
    </contour>
    <contour>
      <point x="340" y="607" type="line"/>
      <point x="459" y="607" type="line"/>
      <point x="459" y="707" type="line"/>
      <point x="340" y="707" type="line"/>
    </contour>
  </outline>
</glyph>
<glyph name="fl" format="2">
  <advance width="539"/>
  <unicode hex="FB02"/>
  <outline>
    <contour>
      <point x="525" y="0" type="line"/>
      <point x="525" y="106" type="line"/>
      <point x="520" y="106" type="line" smooth="yes"/>
      <point x="477" y="106"/>
      <point x="455" y="129"/>
      <point x="455" y="175" type="curve" smooth="yes"/>
      <point x="455" y="707" type="line"/>
      <point x="336" y="707" type="line"/>
      <point x="336" y="168" type="line" smooth="yes"/>
      <point x="336" y="56"/>
      <point x="397" y="0"/>
      <point x="519" y="0" type="curve" smooth="yes"/>
    </contour>
    <contour>
      <point x="82" y="0" type="line"/>
      <point x="200" y="0" type="line"/>
      <point x="200" y="458" type="line"/>
      <point x="272" y="458" type="line"/>
      <point x="272" y="541" type="line"/>
      <point x="200" y="541" type="line"/>
      <point x="200" y="563" type="line" smooth="yes"/>
      <point x="200" y="605.686"/>
      <point x="213.779" y="623"/>
      <point x="257" y="623" type="curve" smooth="yes"/>
      <point x="272" y="623" type="line"/>
      <point x="272" y="707" type="line"/>
      <point x="221" y="707" type="line" smooth="yes"/>
      <point x="127.995" y="707"/>
      <point x="82" y="661"/>
      <point x="82" y="571" type="curve" smooth="yes"/>
      <point x="82" y="541" type="line"/>
      <point x="28" y="541" type="line"/>
      <point x="28" y="458" type="line"/>
      <point x="82" y="458" type="line"/>
    </contour>
  </outline>
</glyph>
<glyph name="Cacute.loclPLK" format="2">
  <advance width="479"/>
  <outline>
    <component base="C"/>
    <contour>
      <point x="197" y="791" type="line"/>
      <point x="298" y="791" type="line"/>
      <point x="344" y="930" type="line"/>
      <point x="218" y="930" type="line"/>
    </contour>
  </outline>
</glyph>
<glyph name="Decyr.loclBGR" format="2">
  <advance width="606"/>
  <outline>
    <component base="Elcyr.loclBGR" xOffset="50"/>
    <contour>
      <point x="226.35" y="0" type="line"/>
      <point x="470" y="0" type="line"/>
      <point x="470" y="-170" type="line"/>
      <point x="596" y="-170" type="line"/>
      <point x="596" y="114.2" type="line"/>
      <point x="226.35" y="114" type="line"/>
    </contour>
    <contour>
      <point x="216.32" y="-0.1" type="line"/>
      <point x="416.372" y="-0.1" type="line"/>
      <point x="416.372" y="113.9" type="line"/>
      <point x="216.32" y="113.9" type="line"/>
    </contour>
    <contour>
      <point x="10" y="-170" type="line"/>
      <point x="136" y="-170" type="line"/>
      <point x="136" y="0" type="line"/>
      <point x="386.03" y="0" type="line"/>
      <point x="386.03" y="114" type="line"/>
      <point x="10" y="114.16" type="line"/>
    </contour>
  </outline>
</glyph>
<glyph name="Nacute.loclPLK" format="2">
  <advance width="485"/>
  <outline>
    <component base="N"/>
    <contour>
      <point x="199" y="791" type="line"/>
      <point x="300" y="791" type="line"/>
      <point x="346" y="930" type="line"/>
      <point x="220" y="930" type="line"/>
    </contour>
  </outline>
</glyph>
<glyph name="Zacute.loclPLK" format="2">
  <advance width="367"/>
  <outline>
    <component base="Z"/>
    <contour>
      <point x="141" y="791" type="line"/>
      <point x="242" y="791" type="line"/>
      <point x="288" y="930" type="line"/>
      <point x="162" y="930" type="line"/>
    </contour>
  </outline>
</glyph>
<glyph name="five.osf" format="2">
  <advance width="415"/>
  <outline>
    <contour>
      <point x="38" y="43" type="line"/>
      <point x="38" y="10" type="line" smooth="yes"/>
      <point x="38" y="-100.967"/>
      <point x="97.968" y="-162"/>
      <point x="207" y="-162" type="curve" smooth="yes"/>
      <point x="318.029" y="-162"/>
      <point x="376" y="-101.97"/>
      <point x="376" y="13" type="curve" smooth="yes"/>
      <point x="376" y="136" type="line" smooth="yes"/>
      <point x="376" y="246"/>
      <point x="331" y="301"/>
      <point x="241" y="301" type="curve" smooth="yes"/>
      <point x="207.833" y="301"/>
      <point x="180.9" y="291.91"/>
      <point x="161" y="274" type="curve"/>
      <point x="161" y="424" type="line"/>
      <point x="376" y="424" type="line"/>
      <point x="376" y="539" type="line"/>
      <point x="46" y="539" type="line"/>
      <point x="46" y="155" type="line"/>
      <point x="161" y="155" type="line"/>
      <point x="170.521" y="179.755"/>
      <point x="184.577" y="191"/>
      <point x="206" y="191" type="curve" smooth="yes"/>
      <point x="235.167" y="191"/>
      <point x="250" y="170.773"/>
      <point x="250" y="131" type="curve" smooth="yes"/>
      <point x="250" y="15" type="line" smooth="yes"/>
      <point x="250" y="-29.659"/>
      <point x="236.231" y="-50"/>
      <point x="206" y="-50" type="curve" smooth="yes"/>
      <point x="175.769" y="-50"/>
      <point x="162" y="-29.659"/>
      <point x="162" y="15" type="curve" smooth="yes"/>
      <point x="162" y="43" type="line"/>
    </contour>
  </outline>
</glyph>
<glyph name="five.tlf" format="2">
  <advance width="418"/>
  <outline>
    <contour>
      <point x="40" y="195" type="line"/>
      <point x="40" y="162" type="line" smooth="yes"/>
      <point x="40" y="51.033"/>
      <point x="99.968" y="-10"/>
      <point x="209" y="-10" type="curve" smooth="yes"/>
      <point x="320.029" y="-10"/>
      <point x="378" y="50.03"/>
      <point x="378" y="165" type="curve" smooth="yes"/>
      <point x="378" y="296" type="line" smooth="yes"/>
      <point x="378" y="406"/>
      <point x="333" y="461"/>
      <point x="243" y="461" type="curve" smooth="yes"/>
      <point x="209.833" y="461"/>
      <point x="182.9" y="451.91"/>
      <point x="163" y="434" type="curve"/>
      <point x="163" y="592" type="line"/>
      <point x="378" y="592" type="line"/>
      <point x="378" y="707" type="line"/>
      <point x="48" y="707" type="line"/>
      <point x="48" y="315" type="line"/>
      <point x="163" y="315" type="line"/>
      <point x="172.521" y="339.755"/>
      <point x="186.577" y="351"/>
      <point x="208" y="351" type="curve" smooth="yes"/>
      <point x="237.167" y="351"/>
      <point x="252" y="330.773"/>
      <point x="252" y="291" type="curve" smooth="yes"/>
      <point x="252" y="167" type="line" smooth="yes"/>
      <point x="252" y="122.341"/>
      <point x="238.231" y="102"/>
      <point x="208" y="102" type="curve" smooth="yes"/>
      <point x="177.769" y="102"/>
      <point x="164" y="122.341"/>
      <point x="164" y="167" type="curve" smooth="yes"/>
      <point x="164" y="195" type="line"/>
    </contour>
  </outline>
</glyph>
<glyph name="five.tosf" format="2">
  <advance width="418"/>
  <outline>
    <contour>
      <point x="40" y="43" type="line"/>
      <point x="40" y="10" type="line" smooth="yes"/>
      <point x="40" y="-100.967"/>
      <point x="99.968" y="-162"/>
      <point x="209" y="-162" type="curve" smooth="yes"/>
      <point x="320.029" y="-162"/>
      <point x="378" y="-101.97"/>
      <point x="378" y="13" type="curve" smooth="yes"/>
      <point x="378" y="136" type="line" smooth="yes"/>
      <point x="378" y="246"/>
      <point x="333" y="301"/>
      <point x="243" y="301" type="curve" smooth="yes"/>
      <point x="209.833" y="301"/>
      <point x="182.9" y="291.91"/>
      <point x="163" y="274" type="curve"/>
      <point x="163" y="424" type="line"/>
      <point x="378" y="424" type="line"/>
      <point x="378" y="539" type="line"/>
      <point x="48" y="539" type="line"/>
      <point x="48" y="155" type="line"/>
      <point x="163" y="155" type="line"/>
      <point x="172.521" y="179.755"/>
      <point x="186.577" y="191"/>
      <point x="208" y="191" type="curve" smooth="yes"/>
      <point x="237.167" y="191"/>
      <point x="252" y="170.773"/>
      <point x="252" y="131" type="curve" smooth="yes"/>
      <point x="252" y="15" type="line" smooth="yes"/>
      <point x="252" y="-29.659"/>
      <point x="238.231" y="-50"/>
      <point x="208" y="-50" type="curve" smooth="yes"/>
      <point x="177.769" y="-50"/>
      <point x="164" y="-29.659"/>
      <point x="164" y="15" type="curve" smooth="yes"/>
      <point x="164" y="43" type="line"/>
    </contour>
  </outline>
</glyph>
<glyph name="four.dnom" format="2">
  <advance width="295"/>
  <outline>
    <contour>
      <point x="20" y="66" type="line"/>
      <point x="162" y="66" type="line"/>
      <point x="162" y="0" type="line"/>
      <point x="246" y="0" type="line"/>
      <point x="246" y="66" type="line"/>
      <point x="275" y="66" type="line"/>
      <point x="275" y="142" type="line"/>
      <point x="246" y="142" type="line"/>
      <point x="246" y="225" type="line"/>
      <point x="162" y="225" type="line"/>
      <point x="162" y="142" type="line"/>
      <point x="105" y="142" type="line"/>
      <point x="198" y="427" type="line"/>
      <point x="114" y="427" type="line"/>
      <point x="20" y="142" type="line"/>
    </contour>
  </outline>
</glyph>
<glyph name="four.numr" format="2">
  <advance width="295"/>
  <outline>
    <contour>
      <point x="20" y="346" type="line"/>
      <point x="162" y="346" type="line"/>
      <point x="162" y="280" type="line"/>
      <point x="246" y="280" type="line"/>
      <point x="246" y="346" type="line"/>
      <point x="275" y="346" type="line"/>
      <point x="275" y="422" type="line"/>
      <point x="246" y="422" type="line"/>
      <point x="246" y="505" type="line"/>
      <point x="162" y="505" type="line"/>
      <point x="162" y="422" type="line"/>
      <point x="105" y="422" type="line"/>
      <point x="198" y="707" type="line"/>
      <point x="114" y="707" type="line"/>
      <point x="20" y="422" type="line"/>
    </contour>
  </outline>
</glyph>
<glyph name="four.sups" format="2">
  <advance width="295"/>
  <outline>
    <contour>
      <point x="20" y="506" type="line"/>
      <point x="162" y="506" type="line"/>
      <point x="162" y="440" type="line"/>
      <point x="246" y="440" type="line"/>
      <point x="246" y="506" type="line"/>
      <point x="275" y="506" type="line"/>
      <point x="275" y="582" type="line"/>
      <point x="246" y="582" type="line"/>
      <point x="246" y="665" type="line"/>
      <point x="162" y="665" type="line"/>
      <point x="162" y="582" type="line"/>
      <point x="105" y="582" type="line"/>
      <point x="198" y="867" type="line"/>
      <point x="114" y="867" type="line"/>
      <point x="20" y="582" type="line"/>
    </contour>
  </outline>
</glyph>
<glyph name="hardcyr.loclBGR" format="2">
  <advance width="486"/>
  <outline>
    <contour>
      <point x="112" y="186.203" type="line"/>
      <point x="231" y="186.203" type="line"/>
      <point x="231" y="541" type="line"/>
      <point x="112" y="541" type="line"/>
    </contour>
    <contour>
      <point x="167" y="422" type="line"/>
      <point x="167" y="541" type="line"/>
      <point x="0" y="541" type="line"/>
      <point x="0" y="421.64" type="line"/>
    </contour>
    <contour>
      <point x="112" y="186.175" type="line"/>
      <point x="112" y="61.953"/>
      <point x="161.146" y="-8"/>
      <point x="301.912" y="-8" type="curve" smooth="yes"/>
      <point x="420.257" y="-8"/>
      <point x="488" y="63.716"/>
      <point x="488" y="189" type="curve" smooth="yes"/>
      <point x="488" y="288.877"/>
      <point x="432.656" y="380"/>
      <point x="303.38" y="380" type="curve" smooth="yes"/>
      <point x="272.894" y="380"/>
      <point x="241.485" y="378"/>
      <point x="211" y="370" type="curve"/>
      <point x="211" y="250" type="line"/>
      <point x="239.559" y="258"/>
      <point x="268.983" y="260"/>
      <point x="297.542" y="260" type="curve" smooth="yes"/>
      <point x="341.441" y="260"/>
      <point x="369" y="224"/>
      <point x="369" y="190" type="curve" smooth="yes"/>
      <point x="369" y="134.56"/>
      <point x="349.524" y="98"/>
      <point x="295" y="98" type="curve" smooth="yes"/>
      <point x="250.844" y="98"/>
      <point x="231" y="125.34"/>
      <point x="231" y="186.175" type="curve"/>
    </contour>
  </outline>
</glyph>
<glyph name="icyr.loclBGR" format="2">
  <advance width="420"/>
  <anchor x="210" y="604" name="top"/>
  <outline>
    <contour>
      <point x="259" y="226.371" type="line"/>
      <point x="259" y="187.593" type="line" smooth="yes"/>
      <point x="259" y="135.734"/>
      <point x="255.931" y="98"/>
      <point x="210" y="98" type="curve" smooth="yes"/>
      <point x="164.069" y="98"/>
      <point x="161" y="137.287"/>
      <point x="161" y="187.593" type="curve" smooth="yes"/>
      <point x="161" y="541" type="line"/>
      <point x="42" y="541" type="line"/>
      <point x="42" y="181" type="line" smooth="yes"/>
      <point x="42" y="59.492"/>
      <point x="72.671" y="-8"/>
      <point x="175" y="-8" type="curve" smooth="yes"/>
      <point x="279.009" y="-8"/>
      <point x="308" y="85.475"/>
      <point x="308" y="181" type="curve" smooth="yes"/>
      <point x="308" y="226.371" type="line"/>
    </contour>
    <contour>
      <point x="263" y="0" type="line"/>
      <point x="378" y="0" type="line"/>
      <point x="378" y="541" type="line"/>
      <point x="259" y="541" type="line"/>
      <point x="259" y="23.841" type="line"/>
      <point x="263" y="23.903" type="line"/>
    </contour>
  </outline>
</glyph>
<glyph name="one.numr" format="2">
  <advance width="220"/>
  <outline>
    <contour>
      <point x="90" y="280" type="line"/>
      <point x="175" y="280" type="line"/>
      <point x="175" y="707" type="line"/>
      <point x="90" y="707" type="line"/>
      <point x="25" y="663" type="line"/>
      <point x="25" y="565" type="line"/>
      <point x="90" y="609" type="line"/>
    </contour>
  </outline>
</glyph>
<glyph name="shchacyr.loclBGR" format="2">
  <advance width="671"/>
  <outline>
    <component base="shacyr.loclBGR"/>
    <contour>
      <point x="551.654" y="-170" type="line"/>
      <point x="670.654" y="-170" type="line"/>
      <point x="670.654" y="119" type="line"/>
      <point x="531.654" y="119" type="line"/>
      <point x="531.654" y="-0.492" type="line"/>
      <point x="551.654" y="-0.492" type="line"/>
    </contour>
  </outline>
</glyph>
<glyph name="softcyr.loclBGR" format="2">
  <advance width="459"/>
  <outline>
    <contour>
      <point x="42" y="186.175" type="line"/>
      <point x="161" y="186.175" type="line"/>
      <point x="161" y="541" type="line"/>
      <point x="42" y="541" type="line"/>
    </contour>
    <contour>
      <point x="42" y="186.175" type="line"/>
      <point x="42" y="61.953"/>
      <point x="91.146" y="-8"/>
      <point x="231.912" y="-8" type="curve" smooth="yes"/>
      <point x="350.257" y="-8"/>
      <point x="418" y="63.716"/>
      <point x="418" y="189" type="curve" smooth="yes"/>
      <point x="418" y="288.877"/>
      <point x="362.656" y="380"/>
      <point x="233.38" y="380" type="curve" smooth="yes"/>
      <point x="202.894" y="380"/>
      <point x="171.485" y="378"/>
      <point x="141" y="370" type="curve"/>
      <point x="141" y="250" type="line"/>
      <point x="169.559" y="258"/>
      <point x="198.983" y="260"/>
      <point x="227.542" y="260" type="curve" smooth="yes"/>
      <point x="271.441" y="260"/>
      <point x="299" y="224"/>
      <point x="299" y="190" type="curve" smooth="yes"/>
      <point x="299" y="134.56"/>
      <point x="279.524" y="98"/>
      <point x="225" y="98" type="curve" smooth="yes"/>
      <point x="180.844" y="98"/>
      <point x="161" y="125.34"/>
      <point x="161" y="186.175" type="curve"/>
    </contour>
  </outline>
</glyph>
<glyph name="three.numr" format="2">
  <advance width="284"/>
  <outline>
    <contour>
      <point x="29" y="401" type="line"/>
      <point x="29" y="369" type="line" smooth="yes"/>
      <point x="29" y="308"/>
      <point x="69" y="273"/>
      <point x="140" y="273" type="curve" smooth="yes"/>
      <point x="212" y="273"/>
      <point x="253" y="311"/>
      <point x="253" y="379" type="curve" smooth="yes"/>
      <point x="253" y="426" type="line" smooth="yes"/>
      <point x="253" y="469"/>
      <point x="242" y="487"/>
      <point x="206" y="502" type="curve"/>
      <point x="241" y="520"/>
      <point x="253" y="539"/>
      <point x="253" y="578" type="curve" smooth="yes"/>
      <point x="253" y="613" type="line" smooth="yes"/>
      <point x="253" y="676"/>
      <point x="212" y="712"/>
      <point x="140" y="712" type="curve" smooth="yes"/>
      <point x="71" y="712"/>
      <point x="29" y="675"/>
      <point x="29" y="613" type="curve" smooth="yes"/>
      <point x="29" y="582" type="line"/>
      <point x="111" y="582" type="line"/>
      <point x="111" y="608" type="line" smooth="yes"/>
      <point x="111" y="627.724"/>
      <point x="118.98" y="636"/>
      <point x="139" y="636" type="curve" smooth="yes"/>
      <point x="161.927" y="636"/>
      <point x="169" y="626.007"/>
      <point x="169" y="604" type="curve" smooth="yes"/>
      <point x="169" y="571" type="line" smooth="yes"/>
      <point x="169" y="547.627"/>
      <point x="160.689" y="536"/>
      <point x="136" y="536" type="curve" smooth="yes"/>
      <point x="118" y="536" type="line"/>
      <point x="118" y="461" type="line"/>
      <point x="134" y="461" type="line" smooth="yes"/>
      <point x="164.79" y="461"/>
      <point x="169" y="449.587"/>
      <point x="169" y="421" type="curve" smooth="yes"/>
      <point x="169" y="381" type="line" smooth="yes"/>
      <point x="169" y="357.637"/>
      <point x="163.38" y="349"/>
      <point x="139" y="349" type="curve" smooth="yes"/>
      <point x="120" y="349"/>
      <point x="111" y="358"/>
      <point x="111" y="377" type="curve" smooth="yes"/>
      <point x="111" y="401" type="line"/>
    </contour>
  </outline>
</glyph>
<glyph name="three.tosf" format="2">
  <advance width="418"/>
  <outline>
    <contour>
      <point x="42" y="45" type="line"/>
      <point x="42" y="-1" type="line" smooth="yes"/>
      <point x="42" y="-101.961"/>
      <point x="102.959" y="-160"/>
      <point x="209" y="-160" type="curve" smooth="yes"/>
      <point x="315.449" y="-160"/>
      <point x="378" y="-98.559"/>
      <point x="378" y="6" type="curve" smooth="yes"/>
      <point x="378" y="72" type="line" smooth="yes"/>
      <point x="378" y="153.134"/>
      <point x="359.913" y="188.035"/>
      <point x="307" y="209" type="curve"/>
      <point x="357.965" y="230.985"/>
      <point x="378" y="267.951"/>
      <point x="378" y="340" type="curve" smooth="yes"/>
      <point x="378" y="384" type="line" smooth="yes"/>
      <point x="378" y="489.545"/>
      <point x="317.464" y="549"/>
      <point x="210" y="549" type="curve" smooth="yes"/>
      <point x="105.198" y="549"/>
      <point x="42" y="489.188"/>
      <point x="42" y="390" type="curve" smooth="yes"/>
      <point x="42" y="345" type="line"/>
      <point x="164" y="345" type="line"/>
      <point x="164" y="384" type="line" smooth="yes"/>
      <point x="164" y="419.795"/>
      <point x="178.833" y="438"/>
      <point x="208" y="438" type="curve" smooth="yes"/>
      <point x="238.648" y="438"/>
      <point x="252" y="419.489"/>
      <point x="252" y="377" type="curve" smooth="yes"/>
      <point x="252" y="322" type="line" smooth="yes"/>
      <point x="252" y="275.252"/>
      <point x="239.946" y="260"/>
      <point x="203" y="260" type="curve" smooth="yes"/>
      <point x="174" y="260" type="line"/>
      <point x="174" y="147" type="line"/>
      <point x="201" y="147" type="line" smooth="yes"/>
      <point x="240" y="147"/>
      <point x="252" y="131"/>
      <point x="252" y="79" type="curve" smooth="yes"/>
      <point x="252" y="12" type="line" smooth="yes"/>
      <point x="252" y="-31.841"/>
      <point x="239.113" y="-50"/>
      <point x="208" y="-50" type="curve" smooth="yes"/>
      <point x="179.091" y="-50"/>
      <point x="164" y="-31.136"/>
      <point x="164" y="5" type="curve" smooth="yes"/>
      <point x="164" y="45" type="line"/>
    </contour>
  </outline>
</glyph>
<glyph name="two.numr" format="2">
  <advance width="289"/>
  <outline>
    <contour>
      <point x="32" y="280" type="line"/>
      <point x="257" y="280" type="line"/>
      <point x="257" y="356" type="line"/>
      <point x="126" y="356" type="line"/>
      <point x="223" y="493" type="line" smooth="yes"/>
      <point x="250" y="531"/>
      <point x="256" y="551"/>
      <point x="256" y="588" type="curve" smooth="yes"/>
      <point x="256" y="619" type="line" smooth="yes"/>
      <point x="256" y="678"/>
      <point x="215" y="713"/>
      <point x="146" y="713" type="curve" smooth="yes"/>
      <point x="78" y="713"/>
      <point x="35" y="677"/>
      <point x="35" y="621" type="curve" smooth="yes"/>
      <point x="35" y="581" type="line"/>
      <point x="117" y="581" type="line"/>
      <point x="117" y="613" type="line" smooth="yes"/>
      <point x="117" y="630.183"/>
      <point x="126.918" y="638"/>
      <point x="144" y="638" type="curve" smooth="yes"/>
      <point x="162.526" y="638"/>
      <point x="174" y="628.848"/>
      <point x="174" y="610" type="curve" smooth="yes"/>
      <point x="174" y="588" type="line" smooth="yes"/>
      <point x="174" y="565"/>
      <point x="171" y="555"/>
      <point x="153" y="529" type="curve" smooth="yes"/>
      <point x="32" y="350" type="line"/>
    </contour>
  </outline>
</glyph>
<glyph name="two.osf" format="2">
  <advance width="406"/>
  <outline>
    <contour>
      <point x="34" y="0" type="line"/>
      <point x="371" y="0" type="line"/>
      <point x="371" y="114" type="line"/>
      <point x="174" y="114" type="line"/>
      <point x="298.073" y="236.185" type="line" smooth="yes"/>
      <point x="352.77" y="290.049"/>
      <point x="371" y="331.181"/>
      <point x="371" y="400.729" type="curve" smooth="yes"/>
      <point x="371" y="417" type="line" smooth="yes"/>
      <point x="371" y="498.8"/>
      <point x="308.25" y="549"/>
      <point x="206" y="549" type="curve" smooth="yes"/>
      <point x="103.813" y="549"/>
      <point x="38" y="498.857"/>
      <point x="38" y="421" type="curve" smooth="yes"/>
      <point x="38" y="385" type="line"/>
      <point x="160" y="385" type="line"/>
      <point x="160" y="409" type="line" smooth="yes"/>
      <point x="160" y="442.023"/>
      <point x="174.02" y="458"/>
      <point x="203" y="458" type="curve" smooth="yes"/>
      <point x="232.167" y="458"/>
      <point x="247" y="442.83"/>
      <point x="247" y="413" type="curve" smooth="yes"/>
      <point x="247" y="375.889" type="line" smooth="yes"/>
      <point x="247" y="340.416"/>
      <point x="228.447" y="303.36"/>
      <point x="193.073" y="268.185" type="curve" smooth="yes"/>
      <point x="34" y="110" type="line"/>
    </contour>
  </outline>
</glyph>
<glyph name="two.sups" format="2">
  <advance width="289"/>
  <outline>
    <contour>
      <point x="32" y="440" type="line"/>
      <point x="257" y="440" type="line"/>
      <point x="257" y="516" type="line"/>
      <point x="126" y="516" type="line"/>
      <point x="223" y="653" type="line" smooth="yes"/>
      <point x="250" y="691"/>
      <point x="256" y="711"/>
      <point x="256" y="748" type="curve" smooth="yes"/>
      <point x="256" y="779" type="line" smooth="yes"/>
      <point x="256" y="838"/>
      <point x="215" y="873"/>
      <point x="146" y="873" type="curve" smooth="yes"/>
      <point x="78" y="873"/>
      <point x="35" y="837"/>
      <point x="35" y="781" type="curve" smooth="yes"/>
      <point x="35" y="741" type="line"/>
      <point x="117" y="741" type="line"/>
      <point x="117" y="773" type="line" smooth="yes"/>
      <point x="117" y="790.183"/>
      <point x="126.918" y="798"/>
      <point x="144" y="798" type="curve" smooth="yes"/>
      <point x="162.526" y="798"/>
      <point x="174" y="788.848"/>
      <point x="174" y="770" type="curve" smooth="yes"/>
      <point x="174" y="748" type="line" smooth="yes"/>
      <point x="174" y="725"/>
      <point x="171" y="715"/>
      <point x="153" y="689" type="curve" smooth="yes"/>
      <point x="32" y="510" type="line"/>
    </contour>
  </outline>
</glyph>
<glyph name="two.tosf" format="2">
  <advance width="418"/>
  <outline>
    <contour>
      <point x="40" y="0" type="line"/>
      <point x="377" y="0" type="line"/>
      <point x="377" y="114" type="line"/>
      <point x="180" y="114" type="line"/>
      <point x="304.073" y="236.185" type="line" smooth="yes"/>
      <point x="358.77" y="290.049"/>
      <point x="377" y="331.181"/>
      <point x="377" y="400.729" type="curve" smooth="yes"/>
      <point x="377" y="417" type="line" smooth="yes"/>
      <point x="377" y="498.8"/>
      <point x="314.25" y="549"/>
      <point x="212" y="549" type="curve" smooth="yes"/>
      <point x="109.813" y="549"/>
      <point x="44" y="498.857"/>
      <point x="44" y="421" type="curve" smooth="yes"/>
      <point x="44" y="385" type="line"/>
      <point x="166" y="385" type="line"/>
      <point x="166" y="409" type="line" smooth="yes"/>
      <point x="166" y="442.023"/>
      <point x="180.02" y="458"/>
      <point x="209" y="458" type="curve" smooth="yes"/>
      <point x="238.167" y="458"/>
      <point x="253" y="442.83"/>
      <point x="253" y="413" type="curve" smooth="yes"/>
      <point x="253" y="375.889" type="line" smooth="yes"/>
      <point x="253" y="340.416"/>
      <point x="234.447" y="303.36"/>
      <point x="199.073" y="268.185" type="curve" smooth="yes"/>
      <point x="40" y="110" type="line"/>
    </contour>
  </outline>
</glyph>
<glyph name="uni030A0301" format="2">
  <anchor x="0" y="587" name="_t.ring"/>
  <outline>
    <contour>
      <point x="-96" y="683" type="curve" smooth="yes"/>
      <point x="-96" y="628.747"/>
      <point x="-54.253" y="587"/>
      <point x="0" y="587" type="curve" smooth="yes"/>
      <point x="55" y="587"/>
      <point x="96" y="628"/>
      <point x="96" y="683" type="curve" smooth="yes"/>
      <point x="96" y="739.743"/>
      <point x="56.158" y="780"/>
      <point x="0" y="780" type="curve" smooth="yes"/>
      <point x="-55.211" y="780"/>
      <point x="-96" y="738.786"/>
    </contour>
    <contour>
      <point x="0" y="637" type="curve" smooth="yes"/>
      <point x="-24" y="637"/>
      <point x="-46" y="659"/>
      <point x="-46" y="683" type="curve" smooth="yes"/>
      <point x="-46" y="710.293"/>
      <point x="-26.713" y="730"/>
      <point x="0" y="730" type="curve" smooth="yes"/>
      <point x="25.926" y="730"/>
      <point x="45" y="710.078"/>
      <point x="45" y="683" type="curve" smooth="yes"/>
      <point x="45" y="657.722"/>
      <point x="24.728" y="637"/>
    </contour>
    <contour>
      <point x="-57" y="799.17" type="line"/>
      <point x="45" y="799.17" type="line"/>
      <point x="146.05" y="904" type="line"/>
      <point x="20.05" y="904" type="line"/>
    </contour>
  </outline>
</glyph>
<glyph name="zero.dnom" format="2">
  <advance width="291"/>
  <outline>
    <contour>
      <point x="32" y="109" type="line" smooth="yes"/>
      <point x="32" y="32.336"/>
      <point x="69.67" y="-6"/>
      <point x="145" y="-6" type="curve" smooth="yes"/>
      <point x="221.165" y="-6"/>
      <point x="259" y="32.167"/>
      <point x="259" y="109" type="curve" smooth="yes"/>
      <point x="259" y="320" type="line" smooth="yes"/>
      <point x="259" y="396"/>
      <point x="221" y="434"/>
      <point x="145" y="434" type="curve" smooth="yes"/>
      <point x="69.333" y="434"/>
      <point x="32" y="396.336"/>
      <point x="32" y="320" type="curve" smooth="yes"/>
    </contour>
    <contour>
      <point x="145" y="70" type="curve" smooth="yes"/>
      <point x="124.604" y="70"/>
      <point x="116" y="82.164"/>
      <point x="116" y="111" type="curve" smooth="yes"/>
      <point x="116" y="318" type="line" smooth="yes"/>
      <point x="116" y="347.645"/>
      <point x="124.032" y="359"/>
      <point x="145" y="359" type="curve" smooth="yes"/>
      <point x="166.581" y="359"/>
      <point x="176" y="346.543"/>
      <point x="176" y="318" type="curve" smooth="yes"/>
      <point x="176" y="111" type="line" smooth="yes"/>
      <point x="176" y="83.266"/>
      <point x="165.969" y="70"/>
    </contour>
  </outline>
</glyph>
<glyph name="zero.osf" format="2">
  <advance width="418"/>
  <outline>
    <contour>
      <point x="38" y="190" type="line" smooth="yes"/>
      <point x="38" y="55.941"/>
      <point x="94.05" y="-10"/>
      <point x="208" y="-10" type="curve" smooth="yes"/>
      <point x="322.285" y="-10"/>
      <point x="379" y="56.333"/>
      <point x="379" y="190" type="curve" smooth="yes"/>
      <point x="379" y="349" type="line" smooth="yes"/>
      <point x="379" y="482.667"/>
      <point x="322.285" y="549"/>
      <point x="208" y="549" type="curve" smooth="yes"/>
      <point x="94.05" y="549"/>
      <point x="38" y="483.059"/>
      <point x="38" y="349" type="curve" smooth="yes"/>
    </contour>
    <contour>
      <point x="164" y="171" type="curve" smooth="yes"/>
      <point x="164" y="368" type="line" smooth="yes"/>
      <point x="164" y="413.84"/>
      <point x="177.896" y="435"/>
      <point x="208" y="435" type="curve" smooth="yes"/>
      <point x="238.907" y="435"/>
      <point x="254" y="413.017"/>
      <point x="254" y="368" type="curve" smooth="yes"/>
      <point x="254" y="171" type="line" smooth="yes"/>
      <point x="254" y="126.056"/>
      <point x="238.403" y="103"/>
      <point x="208" y="103" type="curve" smooth="yes"/>
      <point x="178.704" y="103"/>
      <point x="164" y="125.725"/>
    </contour>
  </outline>
</glyph>
